<?xml version="1.0"?>
<svg xmlns="http://www.w3.org/2000/svg" xmlns:xlink="http://www.w3.org/1999/xlink" width="688.04" height="888.339" viewBox="0 0 688.04 888.339">
  <defs>
    <linearGradient id="linear-gradient" x1="0.787" y1="22.644" x2="0.229" y2="-20.274" gradientUnits="objectBoundingBox">
      <stop offset="0" stop-color="#00e1d3"/>
      <stop offset="0.996" stop-color="#00e1d3" stop-opacity="0"/>
    </linearGradient>
    <linearGradient id="linear-gradient-2" x1="-462.627" y1="0.48" x2="1552.974" y2="0.48" gradientUnits="objectBoundingBox">
      <stop offset="0" stop-color="#00e1d3"/>
      <stop offset="1" stop-color="#00e1d3"/>
    </linearGradient>
    <linearGradient id="linear-gradient-3" x1="0.522" y1="0.752" x2="0.425" y2="-0.764" xlink:href="#linear-gradient"/>
    <linearGradient id="linear-gradient-4" x1="0" y1="0.498" x2="1.003" y2="0.498" xlink:href="#linear-gradient-2"/>
  </defs>
  <g id="_5b2552ffcda2aab0d4cc4463d5b73f45" transform="translate(-14.6 -14.6)">
    <g id="planetes" transform="translate(14.6 14.6)">
      <path id="Path_2115" d="M396.1,539.4c-.3-2.8-.7-5.6-1-8.4-.2-1.8-.2-4.2-1.1-5.8-1.5-2.6-4.3-1.6-6.1.1a6.222,6.222,0,0,1,1.4-1.9,21.833,21.833,0,0,1,3.4-2.6l-1.5.6c-4.7,2.1-7.5,6.1-8.9,11a8.681,8.681,0,0,0-.3,3.6,2.14,2.14,0,0,1-.7,2.1c-.4.4-.7.8-1.1,1.2a11.863,11.863,0,0,1-3.3,2.6,19.31,19.31,0,0,1-4.1,1.2c-2.2.6-5.2,1.3-6.7,3.1a4.208,4.208,0,0,0-1,2,18.41,18.41,0,0,0,6.7,21.3c3.7,2.6,8.6,3.8,13,4.1,3.8.3,7.7-2.7,10.1-5.5a6.277,6.277,0,0,0,1.4-4.2c0-2.8,0-5.6.2-8.4a62.036,62.036,0,0,0-.4-16.1Z" transform="translate(246.54 303.256)" fill="#230054"/>
      <path id="Path_2116" d="M417.2,554.5a38.344,38.344,0,0,0-2.1-6.8,32.977,32.977,0,0,1-1.6-8.3c-.2-4.6.2-9.4-1.4-13.8a9.318,9.318,0,0,0-2.9-4.6c-1.7-1.2-4.2-1-6.2-1-4.8,0-9.8.9-12.7,5.1a1.087,1.087,0,0,0-.1.5c-.7,1.6-.5,3.6-.4,5.2.3,3.9,1.7,8.1,1,12-.4,2.4-2.4,3.9-4.3,5.2-1.8,1.3-3.6,1.5-5.8,1.6-1.7.1-3.8.6-4.8,1.9a12.331,12.331,0,0,0-1,18.4c3.1,3.1,7.5,3.9,11.7,3.9,4.9.1,10.5-.1,15.2-1.6,4.2-1.4,8.4-4.6,11.6-7.7a10.6,10.6,0,0,0,3.8-10Z" transform="translate(246.54 303.256)" fill="#350072"/>
      <path id="Path_2117" d="M192.5,119.7c-14.9-2.6-30-4.6-45.1-5.9l-.1.8c15.1,1.5,30.1,3.6,45,6.4,6.6,1.2,13.1,2.6,19.7,4.1l.8-1.3c-6.8-1.6-13.6-3-20.3-4.1Z" transform="translate(83.881 -14.6)" fill="url(#linear-gradient)"/>
      <path id="Path_2118" d="M398.2,233.6a12.715,12.715,0,0,1-2.6,5.8c-2.4,2.6-5.2,4.5-2.9,8.3,1.3,2.1,3.8,2.9,5.2,4.9,1.6,2.3.9,3.6,4.1,4.9a11.5,11.5,0,0,0,10.6-.7,8.815,8.815,0,0,0,.4-3.3c-.2-3.4-1-8.1-3-11.5,1.7-8,3.5-18.1-3.2-19.2-4.2,2.5-7.2,5.5-8.6,10.8Z" transform="translate(246.54 109.139)" fill="#a990fc"/>
      <path id="Path_2119" d="M403.6,222.8c-5.1.9-7.6,6-11.2,9.1-3.7,3.1-11.4,6.1-12.7,11.2-1.5,5.6,4.3,10.3,8.2,13.1,4.7,3.3,10.3,6.3,16.2,5.9,4-.3,7.2-2.2,8.4-5.5a11.469,11.469,0,0,1-10.6.7c-3.2-1.3-2.4-2.6-4.1-4.9-1.4-2-4-2.8-5.2-4.9-2.3-3.8.6-5.7,2.9-8.3a12.715,12.715,0,0,0,2.6-5.8c1.4-5.2,4.4-8.3,8.6-10.9-.8.1-1.8.1-3.1.3Z" transform="translate(246.54 109.885)" fill="#6c31c9"/>
      <path id="Path_2120" d="M403.3,245.4c-.1.1-.1.1-.1.2a5.237,5.237,0,0,0-2.1,3.7c-.1,2.1,1.8,3.1,3.7,2.8C409.8,251.4,406.3,242.8,403.3,245.4Zm.2,5.9c-1.8-.3-1.9-2.2-1.2-3.6a4.592,4.592,0,0,1,1.9-2c2.6.1,3.6,6.4-.7,5.6Zm2-22.9c-.4.6-.8,2.1.1,2.5.2.1.3,0,.4-.2a2.719,2.719,0,0,0,0-.9,2.153,2.153,0,0,1,.2-1.1C406.3,228.4,405.8,228.1,405.5,228.4Z" transform="translate(246.54 109.654)" fill="#6c31c9"/>
      <path id="Path_2121" d="M384.3,242.8a1.228,1.228,0,0,0-1.5.2,1.114,1.114,0,0,0-.6,1.4,1.342,1.342,0,0,0,1.9.5,1.458,1.458,0,0,0,.2-2.1Zm-.6,1.5a.561.561,0,0,1-.9,0,.367.367,0,0,1-.1-.3h.2c.3-.1.4-.5.7-.6.6-.1.4.7.1.9Zm8.5,10.4a6.943,6.943,0,0,0-.5-1.3c-.2-.4-.8-.3-.7.2a7.837,7.837,0,0,0,.5,1.4c.2.4.8.1.7-.3Zm6.4-27.2a2.012,2.012,0,0,0-.9,1.1c-.1.3.3.6.5.3s.5-.6.7-.9c.3-.3,0-.7-.3-.5Z" transform="translate(246.54 110.054)" fill="#a990fc"/>
      <path id="Path_2122" d="M65.8,183.4a80.724,80.724,0,0,1-6.4-10c-10.1,4.9-20.2,9.6-30.5,14.2a85.605,85.605,0,0,0,9.6,12c9.9-4.5,19.8-8.8,29.8-13.1-.8-1-1.7-2-2.5-3.1ZM46.9,136.1a50.714,50.714,0,0,1,.4-8.7c-1,.6-2,1.1-3,1.7-6.2,3.5-12.4,7-18.5,10.6-3.5,2.1-7.3,4.1-10.9,6.3a82.133,82.133,0,0,0,1.4,11.1c10.6-3.9,21.2-7.9,31.8-11.9a53.906,53.906,0,0,1-1.2-9.1ZM54.1,105a83.159,83.159,0,0,1,9.4-15.1c9.9-12.6,24-20.5,39.6-23.7a87.64,87.64,0,0,1,21.1-1.7c2.1-1.1,4.2-2.2,6.4-3.3a84.228,84.228,0,0,0-28.1-5.7c-.6.4-1.1.8-1.7,1.2C83.2,69.2,65.7,82,49,95.8c-8.2,6.7-16.2,13.6-24.2,20.7-2.8,2.4-5.5,5-8.4,7.4-.4,2.2-.8,4.5-1.1,6.8,6.8-4.7,13.7-9.2,20.5-13.8,6.1-4,12.2-8,18.3-11.9Zm29.7,93.4c-9.4,4.9-18.8,9.9-28.2,14.8a65.509,65.509,0,0,0,5.8,3.2c10.8-4.6,21.6-9.1,32.4-13.7A59.1,59.1,0,0,1,83.8,198.4Zm28.9,8.3c-11.9,5.4-23.8,10.7-35.9,15.7a82.982,82.982,0,0,0,23,3.2h2.1c5.1-2.2,10.2-4.4,15.4-6.6,14.2-6.1,28.5-12.2,42.7-18.3,1.3-1.3,2.6-2.7,3.8-4.1a64.642,64.642,0,0,1-15.9,7,92.622,92.622,0,0,1-35.2,3.1Z" transform="translate(-14.6 -14.6)" fill="#51069d"/>
      <path id="Path_2123" d="M49,95.8c16.7-13.7,34.2-26.6,51.9-39,.6-.4,1.1-.8,1.7-1.2H99.8a85.094,85.094,0,0,0-83.4,68.3c2.9-2.4,5.7-5,8.4-7.4,7.9-7.1,16-14,24.2-20.7Zm-4.7,33.3c1-.6,2-1.1,3-1.7A71.653,71.653,0,0,1,54.1,105c-6.1,3.9-12.2,7.8-18.3,11.9-6.9,4.6-13.7,9.1-20.5,13.8a79.773,79.773,0,0,0-.6,9.9c0,1.9.1,3.7.2,5.5,3.6-2.2,7.3-4.2,10.9-6.3C31.9,136.1,38.1,132.6,44.3,129.1ZM143,67.3a78.79,78.79,0,0,0-12.4-6c-2.1,1.1-4.2,2.2-6.4,3.3A84.445,84.445,0,0,1,143,67.3ZM53.2,160.2a88.375,88.375,0,0,1-5.1-15c-10.6,4-21.2,8-31.8,11.9a83.916,83.916,0,0,0,12.6,30.5c10.2-4.6,20.4-9.4,30.5-14.2-2.3-4.3-4.3-8.7-6.2-13.2Zm15.2,26.3c-10,4.3-20,8.6-29.8,13.1a86.075,86.075,0,0,0,17,13.6c9.4-4.9,18.8-9.9,28.2-14.8a55.8,55.8,0,0,1-15.4-11.9Zm34.5,18.8a72.1,72.1,0,0,1-9.1-2.5c-10.8,4.6-21.6,9.1-32.4,13.7a84.746,84.746,0,0,0,15.4,6c12.1-5,24-10.3,35.9-15.7C109.4,206.4,106.1,205.9,102.9,205.3Zm-1,20.3a85.1,85.1,0,0,0,58-24.9q-21.3,9.15-42.7,18.3c-5,2.2-10.2,4.4-15.3,6.6Z" transform="translate(-14.6 -14.6)" fill="#a990fc"/>
      <path id="Path_2124" d="M59.4,173.4a73.909,73.909,0,0,0,6.4,10,38.758,38.758,0,0,0,2.6,3.1l4.2-1.8c26.5-11.2,53-22.7,79.3-34.3,11-4.8,21.9-9.7,32.8-14.6a84.63,84.63,0,0,0-3.6-20.3q-36.9,17.25-73.6,34.6c-16.1,7.7-32,15.6-48.1,23.3Zm-12.1-46a63.35,63.35,0,0,0-.4,8.7,45.335,45.335,0,0,0,1.2,9.1c4.7-1.8,9.5-3.6,14.2-5.4,31.5-12.1,62.5-25.4,93.7-38.2,5.2-2.2,10.5-4.3,15.7-6.4a86,86,0,0,0-23.3-24.4q-33.6,18.9-67.2,37.7L47.3,127.4Zm55.8-61.1C87.5,69.5,73.4,77.3,63.5,90a83.159,83.159,0,0,0-9.4,15.1c22.8-14.4,46.2-28,70.2-40.5A88.055,88.055,0,0,0,103.1,66.3ZM83.8,198.4a74.025,74.025,0,0,0,10,4.4c.3-.1.6-.3.9-.4,28-11.9,55.7-24.5,83.4-37,1.2-.5,2.4-1.1,3.5-1.6a86.378,86.378,0,0,0,3-17q-33.45,16.65-66.8,33.8C106.4,186.5,95.1,192.4,83.8,198.4Zm58.8-5.6c-10,4.7-19.9,9.4-29.9,14a94.891,94.891,0,0,0,35.2-3.2,62.611,62.611,0,0,0,15.9-7,89.03,89.03,0,0,0,13.1-19.9c-11.5,5.3-22.9,10.7-34.3,16.1Z" transform="translate(-14.6 -14.6)" fill="#7d0dff"/>
      <path id="Path_2125" d="M54.1,105a71.653,71.653,0,0,0-6.8,22.4c11.3-6.3,22.6-12.7,34-19q33.6-18.75,67.2-37.7c-1.8-1.2-3.6-2.4-5.4-3.5a84.445,84.445,0,0,0-18.8-2.7Q88.3,83.4,54.1,105Zm8.3,34.8c-4.7,1.8-9.5,3.6-14.2,5.4a91.465,91.465,0,0,0,5.1,15c1.9,4.5,3.9,8.9,6.2,13.2,16.1-7.7,32-15.6,48.1-23.2q36.75-17.4,73.6-34.6a81.615,81.615,0,0,0-9.4-20.3c-5.3,2.1-10.5,4.3-15.7,6.4-31.3,12.8-62.3,26-93.7,38.1Zm40.4,2.2a3.329,3.329,0,0,0-.6.3c-.2.1-.3.2-.2.1a1.238,1.238,0,0,0,.2-.3c0-.1.1-.2.1-.4v-.3c0-.3-.1-.3-.1-.3,0,.1.4.4.8.7-.1.2-.2.2-.2.2ZM72.6,184.7l-4.2,1.8a53.953,53.953,0,0,0,15.4,11.9c11.3-6,22.7-11.9,34.1-17.8q33.3-17.1,66.8-33.8c.1-2.1.2-4.1.2-6.2,0-1.6,0-3.2-.1-4.7-10.9,4.9-21.9,9.8-32.8,14.6-26.5,11.5-52.9,22.9-79.4,34.2Zm22.1,17.7c-.3.1-.6.3-.9.4a72.1,72.1,0,0,0,9.1,2.5c3.2.7,6.5,1.1,9.8,1.5,10-4.6,20-9.3,29.9-14,11.4-5.4,22.8-10.8,34.2-16.1a83.161,83.161,0,0,0,4.8-12.9c-1.2.5-2.4,1.1-3.5,1.6C150.4,177.8,122.7,190.5,94.7,202.4Z" transform="translate(-14.6 -14.6)" fill="#c8bdff"/>
      <path id="Path_2126" d="M102.2,141.2l.1.3v.3c0,.1-.1.3-.1.4a1.238,1.238,0,0,1-.2.3c-.1.1,0,0,.2-.1l.6-.3a.349.349,0,0,0,.2-.1l-.8-.8Z" transform="translate(40.195 56.104)" fill="#a990fc"/>
      <path id="Path_2127" d="M76.8,52.3a.551.551,0,0,0,0,1.1A.551.551,0,0,0,76.8,52.3Z" transform="translate(-14.6 -14.6)" fill="#fff"/>
      <path id="Path_2128" d="M184.7,135.8a84.63,84.63,0,0,0-3.6-20.3,81.615,81.615,0,0,0-9.4-20.3,86,86,0,0,0-23.3-24.4c-1.8-1.2-3.6-2.4-5.4-3.5a78.79,78.79,0,0,0-12.4-6,84.228,84.228,0,0,0-28.1-5.7H99.7a85.094,85.094,0,0,0-83.4,68.3c-.4,2.2-.8,4.5-1.1,6.8a79.773,79.773,0,0,0-.6,9.9c0,1.9.1,3.7.2,5.5a82.133,82.133,0,0,0,1.4,11.1,83.916,83.916,0,0,0,12.6,30.5,84.09,84.09,0,0,0,26.6,25.6,65.509,65.509,0,0,0,5.8,3.2,84.746,84.746,0,0,0,15.4,6,82.982,82.982,0,0,0,23,3.2h2.1a85.1,85.1,0,0,0,58-24.9c1.3-1.3,2.6-2.7,3.8-4.1a89.03,89.03,0,0,0,13.1-19.9,83.161,83.161,0,0,0,4.8-12.9,86.378,86.378,0,0,0,3-17c.1-2.1.2-4.1.2-6.2a20.193,20.193,0,0,0,.1-4.9ZM76.8,53.4a.551.551,0,0,0,0-1.1A.551.551,0,0,0,76.8,53.4Z" transform="translate(-14.6 -14.6)" fill="#51069d" opacity="0.25"/>
      <path id="Path_2129" d="M106.3,517.3h-.1c-1.9,3.3-3.8,7.8-2.5,11.4,1.6,4.4,8.3,3.4,11.8,3.7,3.8.4,7.6,1.8,11.3.7a9.671,9.671,0,0,0,5-3.2c-.2-4.8-2.9-9.3-6-12.8-3.8-4.3-5.2-10.8-12.2-10.5a10.311,10.311,0,0,0-4,1.1,9.867,9.867,0,0,0-3.1,1.5c.6.2,1.2.3,1.9.5,4.7,1.6,2.8,9-2.1,7.6Z" transform="translate(44.949 303.256)" fill="#c8bdff"/>
      <path id="Path_2130" d="M103.8,511.7c-4.2,4.8-8.9,10.2-11.2,16.3-1.9,5.1.1,10.1,5.5,11.6,2.8.8,5.6.2,8.4-.2a45.782,45.782,0,0,1,11.7-.1c6.1.7,12.2.5,13.5-6.7a12.288,12.288,0,0,0,.2-2.7,9.671,9.671,0,0,1-5,3.2c-3.8,1.1-7.6-.3-11.3-.7-3.5-.4-10.2.6-11.8-3.7-1.3-3.5.6-8.1,2.5-11.4h.1c4.9,1.4,6.9-6,2.1-7.6a10.547,10.547,0,0,0-1.9-.5,13.52,13.52,0,0,0-2.8,2.5Z" transform="translate(38.889 303.256)" fill="#a990fc"/>
      <path id="Path_2131" d="M167.7,265c3.6-1.8,3.8-6.5,7.4-8.5,1.8-1,3.7-1.1,5.7-1.5,2.8-.5,4.3-2.2,5.5-4.7,2-4.4.7-8.2-.1-12.4a21.288,21.288,0,0,0-6.9-2.8C176,230.9,171,227,167,231c-4.4,4.4-5.2,10.1-4.7,15.8-3.9,5.1-8.4,12.9-6.4,18.5C159.2,267,165.4,266.2,167.7,265Z" transform="translate(80.802 113.325)" fill="#350072"/>
      <path id="Path_2132" d="M161.4,270.8c4.5,1.9,10.6,1.2,15.1-.3a21.409,21.409,0,0,0,6.9-3.5c1.5-1.1,2.6-2.2,4.4-2.8a28.175,28.175,0,0,1,3.1-.7c3.4-.1,6.7-1.1,8.2-4.6,1.5-3.6-.3-7.3-3.2-9.6a35.046,35.046,0,0,0-6.6-4c-.1-.9-.2-1.7-.3-2.6-.3-1.9-.6-3.4-2.3-4.5l-.6-.3c.8,4.2,2.1,8,.1,12.4-1.2,2.5-2.6,4.2-5.5,4.7-2,.4-3.9.5-5.7,1.5-3.6,2-3.8,6.7-7.4,8.5-2.3,1.2-8.5,1.9-11.8.4a9.328,9.328,0,0,0,5.6,5.4Z" transform="translate(84.113 117.714)" fill="#230054"/>
      <path id="Path_2133" d="M162.3,99.7h0c0,.3-.1.4-.1.3a.349.349,0,0,1,.2-.1.31.31,0,0,0-.1-.2h0Z" transform="translate(77.793 -14.6)" fill="url(#linear-gradient-2)"/>
      <path id="Path_2134" d="M253.3,96.6Z" transform="translate(134.747 -14.6)" fill="none"/>
      <path id="Path_2136" d="M370.8,77.9c-1.2-9,3.2-19,13-20.4a16.95,16.95,0,0,1,4.5,0,20.742,20.742,0,1,0,5.9,34.6,15.836,15.836,0,0,1-4.3,1c-9.7.7-17.9-5.6-19.1-15.2Z" transform="translate(246.54 -14.6)" fill="#a990fc"/>
      <path id="Path_2137" d="M401.1,76.6a20.7,20.7,0,0,0-12.8-19.1,16.945,16.945,0,0,0-4.5,0c-9.8,1.4-14.2,11.4-13,20.4a17.364,17.364,0,0,0,19.1,15.2,15.015,15.015,0,0,0,4.3-1A21.163,21.163,0,0,0,401.1,76.6Z" transform="translate(246.54 -14.6)" fill="#fff"/>
      <path id="Path_2138" d="M274,480.5c2.1,6.4,7.5,8.3,12,12.6,3.9,3.8,4.4,8.6,4.4,13.7,0,6.2,2.8,17.4,11.4,14.4,5.8-2,9.1-8,15.4-9.5s13.5.7,19.9,1.1,14,1.3,20.2-.6a8.432,8.432,0,0,0,4.6-2.8,12.753,12.753,0,0,0-1.6-2.7c-2.5-3.1-5-6.2-7.6-9.3-2.4-2.9-6.1-6.3-7.3-10-1.9-6.2-4.5-10.8-9.8-14.9a32.814,32.814,0,0,0-17.2-6.8c-7-.7-14.5,3.1-21.4,1.3-5.8-1.5-8.8-7.4-15.5-7.3a10.854,10.854,0,0,0-5.4,1.4c-2.3,6.4-4.3,12.6-2.1,19.4Z" transform="translate(190.836 303.256)" fill="#350072"/>
      <path id="Path_2139" d="M268.6,472.1a22.751,22.751,0,0,0-.2,2.6,54.139,54.139,0,0,0-.3,14.9c1,4.6,5.5,7.3,8.6,10.5a50.787,50.787,0,0,1,4.7,5.7,17.744,17.744,0,0,1-.2,3.2c-.7,4.1-2.4,8-2.4,12.3,0,8,6.6,13.5,13.3,16.8,7.7,3.8,13.9-.4,19-6.3,3-3.5,6.1-6.9,9.2-10.3,11.7-.4,23.5-1.8,35.1-3.1,5.9-.7,8.4-4.4,6.5-8.8a9.78,9.78,0,0,1-4.6,2.8c-6.2,1.9-13.8,1-20.2.6s-13.5-2.6-19.9-1.1c-6.3,1.5-9.6,7.4-15.4,9.5-8.6,3-11.4-8.2-11.4-14.4,0-5.1-.5-10-4.4-13.7-4.5-4.3-9.8-6.2-12-12.6-2.3-6.8-.3-13,2.1-19.3a14.606,14.606,0,0,0-7.5,10.7Z" transform="translate(190.315 303.256)" fill="#230054"/>
      <path id="Path_2140" d="M84.1,486.7c1,2.6,2.9,5.7,5.9,6.3,2.5.5,5.2-.5,7.7-1.1a19.773,19.773,0,0,1,11.8.5c4.5,1.8,8.2,6.6,13.4,5.1,5.2-1.6,6.8-6.8,10.6-10,3.2-2.6,7.6-3.1,11.6-3.2,2.1,0,4.1.3,6.2.3,4.1,0,4.2-2.8,2.6-5.3-2.4-1.2-5.3-1.6-7.8-2.3a65.886,65.886,0,0,1-12.8-4.8c-2-.9-4.3-2.1-6.7-3.2l-.3-.3c-2-2.1-3.8-4.1-6.7-4.8-3.6-.8-7.9-.7-11.6-.7-2.8,0-4.5.2-6.7,1.8-3.7,2.7-7.2,5.8-10.8,8.7-.8.7-1.7,1.3-2.5,2-2.6,3.6-5.3,7.3-3.9,11Z" transform="translate(37.53 251.478)" fill="#350072"/>
      <path id="Path_2141" d="M79.2,499.6c2.9,6.9,5.6,11.5,12.4,14.8,3.4,1.7,5.2,5.1,8.6,6.6,3.6,1.6,8.3,1.4,12.1,1.7,8.5.6,13.1-3.9,18.9-9.6,5.5-5.4,11.6-10.9,16.6-17,2.6-.4,5.6-1,7.5-2.4,3.8-2.9,4.4-10.6.3-13.4a6.466,6.466,0,0,0-1.6-.9c1.6,2.5,1.5,5.3-2.6,5.3-2.1,0-4.1-.3-6.2-.3-4,0-8.4.6-11.6,3.2-3.9,3.2-5.4,8.5-10.6,10s-8.9-3.3-13.4-5.1a19.053,19.053,0,0,0-11.8-.5c-2.4.5-5.2,1.6-7.7,1.1-2.9-.6-4.9-3.7-5.9-6.3-1.4-3.7,1.4-7.4,3.9-10.9a68.4,68.4,0,0,0-7.6,6.5c-5.4,5.4-4.1,10.8-1.3,17.2Z" transform="translate(-14.6 303.256)" fill="#230054"/>
      <path id="Path_2142" d="M22.6,316c1.3,4.8,1,10.2,3.3,14.7,3.8,7.6,10.7,1.9,16.8,3.3,4.7,1.1,6.9,7.1,12.1,7.1,3.5,0,5.9-2.2,6-5.6a8.807,8.807,0,0,0-.2-1.7c-.8-1.2-1.7-2.3-2.4-3.5a17.723,17.723,0,0,1-1.5-3.1c.5-2.4.9-4.8,1.3-7.2.4-2.6.6-5.5-1.9-7.2s-6.2-2-9.1-2.3a39.191,39.191,0,0,0-7.8-.6,1.268,1.268,0,0,1-.6-.1,35.944,35.944,0,0,0-3.7-1.5c-1.1-.4-2.3-.6-3.4-.9-2.2-1.1-4.4-1.8-6.6-.5a5.21,5.21,0,0,0-2.3,4.7v3.2a4.819,4.819,0,0,1,0,1.2Z" transform="translate(-14.6 158.457)" fill="#350072"/>
      <path id="Path_2143" d="M21.1,324.8c-1.1,3.6-2.4,6.8-1.6,10.8,1,4.6,3.5,10.5,7.6,13.2,2.5,1.7,5,1.5,7.8,2s4.9,2.7,7.7,3.3c5,1,10.2-1.1,13.8-4.6,2.9-2.8,7.1-8.3,5.8-12.5a12.617,12.617,0,0,0-1.6-3.3,9.853,9.853,0,0,1,.2,1.7,5.628,5.628,0,0,1-6,5.6c-5.2,0-7.3-6-12.1-7.1-6.1-1.4-12.9,4.3-16.8-3.3-2.3-4.5-2.1-9.9-3.3-14.7a4.1,4.1,0,0,0-.1-1.1,16.2,16.2,0,0,1-.1,2.2,34.38,34.38,0,0,0-1.3,7.8Z" transform="translate(-14.6 165.122)" fill="#230054"/>
      <path id="Path_2144" d="M356.9,452.9c1.2,1.7,3.6,2.5,5.5,3.2a2.8,2.8,0,0,0,2.9-.3,4.734,4.734,0,0,0,.4-3.7,6.163,6.163,0,0,1,0-3.3,4.618,4.618,0,0,0-.9-4.5,5,5,0,0,0-4.5-1.3,5.6,5.6,0,0,0-2,.8,11.258,11.258,0,0,0-2.1,3.5,7.3,7.3,0,0,0,.7,5.6Z" transform="translate(246.54 229.802)" fill="#350072"/>
      <path id="Path_2145" d="M355,445.8a10.054,10.054,0,0,0-2.9,6.8,4.794,4.794,0,0,0,4.2,4.9,22.624,22.624,0,0,0,4.5.2c1.5,0,3-.1,4.1-1.2.2-.2.3-.4.5-.6a2.8,2.8,0,0,1-2.9.3c-1.9-.7-4.3-1.5-5.5-3.2a6.861,6.861,0,0,1-.6-5.6,11.258,11.258,0,0,1,2.1-3.5c-.2.1-.3.2-.5.3a4.477,4.477,0,0,0-3,1.6Z" transform="translate(246.54 230.53)" fill="#230054"/>
      <path id="Path_2146" d="M192.5,500.9c-.1,0-.1.1-.2.1-.1.1.1.3.2.2,0-.1.1-.1.1-.2C192.8,501,192.6,500.8,192.5,500.9Zm-5,14.3c2,4.5,9.7,3.8,13.7,2.8a14.315,14.315,0,0,0,9.3-7.5c0-.1-.1-.2-.1-.3-1.6-3.9-7.4-4.5-11-4.9-3-.4-6.2-.3-8.8,1.1-2.2,2.8-4.5,5.9-3.1,8.8Z" transform="translate(99.727 303.256)" fill="#350072"/>
      <path id="Path_2147" d="M183.6,517.4c.2,4.2,3,5.4,6.5,6.2,3.2.7,5.1.9,7.8-1.4a19.016,19.016,0,0,0,3-3.3,13.556,13.556,0,0,0,6.1-1.1c2.7-1.3,4.7-4.4,3.6-7.4a14.612,14.612,0,0,1-9.3,7.5c-4,1.1-11.7,1.7-13.7-2.8-1.3-2.9.9-6,3.1-8.8a9.509,9.509,0,0,0-2,1.5c-2.6,2.4-5.3,6.1-5.1,9.6Z" transform="translate(98.536 303.256)" fill="#230054"/>
      <path id="Path_2148" d="M115.4,300.3c-1.7,3.4-.1,6.8,3.6,7.6a9.6,9.6,0,0,0,6.4-.6c.5-1,1-1.8,1.5-2.8,1.1-2.5-.8-4.6-3.1-5.3a35.494,35.494,0,0,0-5.5-1.8,8.057,8.057,0,0,0-2.9,2.9Z" transform="translate(49.976 146.005)" fill="#350072"/>
      <path id="Path_2149" d="M115.7,297.6a5.541,5.541,0,0,0-2,1.5,11.167,11.167,0,0,0-2.5,2.8c-1.1,1.7-2.9,4.9-2.3,7.1s4.4,3.2,6.3,3.5c2.6.4,6.1.6,8.1-1.3a6.941,6.941,0,0,0,1.6-2.9c.1-.3.2-.5.3-.8a10.258,10.258,0,0,1-6.4.6,5.1,5.1,0,0,1-3.6-7.6,7.859,7.859,0,0,1,3-3,3.593,3.593,0,0,0-2.5.1Z" transform="translate(46.739 147.307)" fill="#230054"/>
      <path id="Path_2150" d="M407.2,520.2c-4.8-.8-9.8-1.1-14.5.5a21.832,21.832,0,0,0-3.4,2.6c-1.9,1.9-2.3,4.1-2.4,6.6a79.068,79.068,0,0,0,.6,8.5,8.348,8.348,0,0,1-1.6,6.1c-2.6,3.3-7,3.7-10.1,6.3a11.505,11.505,0,0,0-2.6,4c3.7.1,7.4.4,11,.6a71.022,71.022,0,0,0,17.8-1c1.1-.2,2.3-.3,3-1.3.7-.9.5-2.2.6-3.3.1-3.1-.1-6.1-.2-9.2-.4-6.2-.9-12.5-.2-18.7v-.2H407a.76.76,0,0,0,.2-1.5Z" transform="translate(246.54 303.256)" fill="#350072"/>
      <path id="Path_2151" d="M94.6,406.1a31.7,31.7,0,0,0-5.9-3.8c-1-5.2-4.9-9-11.2-7.1-5.1,1.6-12.8,3.6-15.5,9,.1,3.2,1.7,6.7,4.3,8,3,1.5,5.8-1.1,8.6-1.9,5.4-1.5,9.9,1.3,15.1,2.2,4.1.7,6.1-1.2,6.6-3.9a7.142,7.142,0,0,0-2-2.5Z" transform="translate(-14.6 204.064)" fill="#a990fc"/>
      <path id="Path_2152" d="M61.8,419.7c.6,3.1,2.2,5.8,5.4,6.7,4.5,1.1,10.3-1.8,14.5-5.5a12.1,12.1,0,0,1,1.9-.1c4.5-.2,11,.2,13.5-4.5a7.764,7.764,0,0,0-.5-7.8c-.5,2.7-2.5,4.6-6.6,3.9-5.2-.9-9.7-3.8-15.1-2.2-2.8.8-5.6,3.4-8.6,1.9-2.6-1.3-4.1-4.8-4.3-8a7.543,7.543,0,0,0-.9,2.9,45.027,45.027,0,0,0,.7,12.7Z" transform="translate(-14.6 211.344)" fill="#6c31c9"/>
      <path id="Path_2153" d="M395.1,438.1c5.7.1,10.1-3.8,16-2.6,4.9,1,14.8,6,18.3-.4,2.2-4,.3-8.8-2.6-12.4-3.6-2.5-9.1-1.8-13.5-1a7.869,7.869,0,0,0-1.9-1.8,8.327,8.327,0,0,0-5.1-.9,14.2,14.2,0,0,0-5.3,2c-2.2,1.1-4,1.3-6.4,1.9a8.544,8.544,0,0,0-2.4.9C389.5,429.4,386.8,437.9,395.1,438.1Z" transform="translate(246.54 218.6)" fill="#a990fc"/>
      <path id="Path_2154" d="M385.5,444.4c.4,3.4,1.7,6.7,4.8,8.6,3.8,2.3,9.4,1.4,13.7,1.4,4.7,0,8.8,0,12.1-3.8,2.4-2.8,4.2-5.8,6.6-8.5a15.2,15.2,0,0,0,6.7-3c4.5-3.9,2.4-10.9-.9-14.8a7,7,0,0,0-1.6-1.4c3,3.6,4.8,8.4,2.6,12.4-3.5,6.5-13.4,1.5-18.3.4-5.9-1.3-10.3,2.7-16,2.6-8.3-.2-5.6-8.7-2.9-14.4-6.7,3.3-7.6,13.6-6.8,20.5Z" transform="translate(246.54 226.266)" fill="#6c31c9"/>
      <path id="Path_2155" d="M245.3,213c2.1,2,5.3,1.9,8,1.7,3.7-.3,7.6-.6,8.3-4.9a3.4,3.4,0,0,0,.1-1c-1.4-1.6-4.1-2.2-6.7-2.2a7.085,7.085,0,0,0-11,.9c-.3,2-.4,4,1.3,5.5Z" transform="translate(135.236 93.114)" fill="#a990fc"/>
      <path id="Path_2156" d="M242.5,214.2c1.2,1.9,4.8,2.8,6.9,3.3,4.2.9,12.4.6,13.2-5.2a4.119,4.119,0,0,0-1-3.5,3.4,3.4,0,0,1-.1,1c-.7,4.3-4.6,4.6-8.3,4.9-2.7.2-5.9.3-8-1.7-1.6-1.5-1.6-3.5-1.4-5.5-.2.3-.4.5-.6.8C242.3,209.9,241.4,212.4,242.5,214.2Z" transform="translate(135.08 94.871)" fill="#6c31c9"/>
      <path id="Path_2157" d="M374.9,168c-.5,2.2-.7,3.4,1.5,4.2a7.361,7.361,0,0,0,4.4.2,8.977,8.977,0,0,0,2.8-2.4,12.194,12.194,0,0,0-.4-3.2c1.7-1.7,2.4-4.3,3.6-6.3,1.3-2.2,2.4-3.8,1.8-6.5a3.543,3.543,0,0,0-3.3-2.5c-2.6-.3-4.2,1.2-5.5,3.3C379.7,159.5,375.9,163.7,374.9,168Z" transform="translate(246.54 64.599)" fill="#a990fc"/>
      <path id="Path_2158" d="M374.3,176c3.7,2.8,8.5.2,9.3-4.1a5.206,5.206,0,0,0,0-1.8,10.251,10.251,0,0,1-2.8,2.4,7.361,7.361,0,0,1-4.4-.2c-2.2-.8-2.1-2-1.5-4.2,1-4.3,4.8-8.5,4.9-13.2-1.6,2.6-2.6,6.2-3.9,8.2-2.6,3.7-6.6,9-1.6,12.9Z" transform="translate(246.54 66.746)" fill="#6c31c9"/>
      <path id="Path_2159" d="M306.8,118.7c1.2,1.7,4.9,1.8,6.7,1.3,2.3-.6,5.2-1.4,7.4-2.2,2.5-.9,3-2.4,3.3-4.3a3.591,3.591,0,0,0-1-.7,3.2,3.2,0,0,0-2.3-1.6,15,15,0,0,0-4.2-.2,8.565,8.565,0,0,0-7.7,1.6,14.129,14.129,0,0,0-2.5,2.9,5.511,5.511,0,0,0,.3,3.2Z" transform="translate(176.106 -14.6)" fill="#c8bdff"/>
      <path id="Path_2160" d="M305.5,121.3c1.5,3.8,5.5,3.7,8.7,2.3a11.052,11.052,0,0,0,3.7-2.7,5.166,5.166,0,0,1,1.8-1.2,6.356,6.356,0,0,1,1.8-.6h.3a3.417,3.417,0,0,0,2.4-5.6c-.3,1.9-.8,3.4-3.3,4.3-2.2.8-5.1,1.6-7.4,2.2-1.8.4-5.5.4-6.7-1.3-.6-.8-.4-2-.4-3.2a6.635,6.635,0,0,0-.9,5.8Zm-4.9,125.8c-2.3-17,6.1-35.9,24.6-38.5a36.064,36.064,0,0,1,15.2,1.3,40.172,40.172,0,1,0,11.8,60,28.913,28.913,0,0,1-15.3,5.8c-18.5,1.6-33.9-10.4-36.3-28.6Z" transform="translate(186.272 64.21)" fill="#a990fc"/>
      <path id="Path_2161" d="M340.3,209.9a35.932,35.932,0,0,0-15.2-1.3c-18.5,2.6-26.8,21.5-24.6,38.5,2.4,18.2,17.8,30.2,36.2,28.7A29.76,29.76,0,0,0,352,270a40.349,40.349,0,0,0-11.7-60.1Z" transform="translate(194.377 107.834)" fill="#c8bdff"/>
      <path id="Path_2162" d="M334.9,491.6c-2.1-5.4-8.2-6.4-13.3-6.7a.43.43,0,0,0-.4.4c-3.7.6-5.5,6.2-4.8,9.6.9,5.2,7.2,7.1,11.8,6.5,4.7-.7,8.6-4.9,6.7-9.8Zm-5.5,8.7c-4,1.2-9.6,0-11.8-3.8-2-3.5-.3-9.8,3.8-10.9h.2c3.9.2,8.4.8,11.1,3.9,3.5,4,1.8,9.3-3.3,10.8Zm-28.6-24.7a3.442,3.442,0,0,0-2.4-.4,1.3,1.3,0,0,0-.9,1,2.105,2.105,0,0,0-.2,2.5,2.541,2.541,0,0,0,3.8.4C302.4,477.9,302.4,476.3,300.8,475.6Zm-.6,3.4a1.994,1.994,0,0,1-2.7-.8,1.2,1.2,0,0,1,.1-1.4c.2.1.4,0,.4-.2.3-1.4,2-.8,2.8-.3,1.2.8.5,2.2-.6,2.7Zm-182.8-4.3c-.5-3.3-4.9-4-7.5-3.8a.1.1,0,0,0-.1.1c-2.6-.1-5.7,1.1-6.2,3.9-.7,3.9,4,4.4,6.7,4.2,2.4-.3,7.6-.9,7.1-4.4Zm-2.6,2.5a9.611,9.611,0,0,1-2.9.8c-2.3.5-8.7,1-7.7-3.3.6-2.6,3.8-3,6.1-3.2,1.6.3,3.4.4,4.8,1.2C117.1,474,117.1,475.9,114.8,477.2Zm17.5,4c-.5-1.7-3.8-1.2-4.9-.7-.9.2-1.8.8-1.6,1.6.3,1.6,3,1.2,4,1.1C130.6,483,132.7,482.6,132.3,481.2Zm-2.9,1.4a5.863,5.863,0,0,1-2.3.1c-.9-.2-.7-1-.1-1.5a3.582,3.582,0,0,1,1.1-.4,4.765,4.765,0,0,1,2.9.1c1.9,1-1,1.6-1.6,1.7Zm-36.5.5c-.2.3-.5.5-.5.9a.367.367,0,0,0,.6.3,1.346,1.346,0,0,0,.5-.9C93.7,483.1,93.2,482.8,92.9,483.1Zm26.9-15.8a.908.908,0,0,0-.3.7c0,.2.2.5.4.5.5.1.6-.3.8-.6C121.1,467.5,120.2,466.8,119.8,467.3Zm21.9,14.3h0c-.4-.4-.9-.1-.8.3v.1C141.1,482.8,142.3,482.2,141.7,481.6Zm-23.5,6.3c-.5-.1-.5.7-.1.6h.1C118.7,488.5,118.7,487.9,118.2,487.9ZM299.6,500a.644.644,0,0,0-1.2.3v.6a.713.713,0,0,0,.3.6.9.9,0,0,0,.5.1.752.752,0,0,0,.5-.7.972.972,0,0,0-.1-.9Zm30.6-24.1a10.143,10.143,0,0,0-.9,1.3c-.2.4.4.7.7.5a3.072,3.072,0,0,0,1-1.5c.1-.4-.6-.7-.8-.3Zm16,27.9c-.5-.5-1.2.2-.8.8.2.2.2.4.5.6a.348.348,0,0,0,.5-.1C346.8,504.7,346.6,504.2,346.2,503.8Zm-34.8-34.3c-.4-.4-.9.1-.8.5.1.5.2.9.3,1.4s.3.9.8,1a.44.44,0,0,0,.5-.1C312.9,471.5,311.9,470.1,311.4,469.5ZM50.7,318.8c-.5-3.4-4.6-4.5-7.5-3.8-.2,0-.2.2-.2.3a6.11,6.11,0,0,0-4.3,5.5c-.1,2.9,3.7,5,6.3,4.6C48.2,324.9,51.2,322.3,50.7,318.8ZM45,324.7c-2.7.5-6.5-2-5.7-4.9.6-2.3,2.4-3.5,4.5-4.3,2.8-.3,6.3.8,6.3,4.1,0,2.7-2.6,4.7-5.1,5.1Zm5.7,4.4a2.756,2.756,0,0,0-1.6,3,1.927,1.927,0,0,0,1.5,1.5c1.3.2,3-1,2.9-2.4a2.161,2.161,0,0,0-2.8-2.1Zm.8,3.9a1.647,1.647,0,0,1-1.9-.7v-.1c.1-.8-.1-1.7.6-2.3a1.677,1.677,0,0,1,2.6.5,1.825,1.825,0,0,1-1.3,2.6Zm-15.1-4.5c0-.4-.6-.5-.8-.1a1.393,1.393,0,0,0,.2,1.5.443.443,0,0,0,.7-.2,4.483,4.483,0,0,0-.1-1.2Zm17.4-14.7a.192.192,0,0,0-.3.1,1.062,1.062,0,0,0,.1.8.32.32,0,0,0,.6-.2.755.755,0,0,0-.4-.7Zm-17.1-.1a2.035,2.035,0,0,0-1.5.6.3.3,0,0,0,.3.5c.4-.2.9-.3,1.3-.5A.317.317,0,0,0,36.7,313.7ZM119.1,301c-.2-.1-.4,0-.4.2a2.647,2.647,0,0,0,.9,1.9.449.449,0,0,0,.7-.4A2.591,2.591,0,0,0,119.1,301Zm5.6,1.2c-.2.3-.5.5-.6.8-.1.4.4.8.7.6a4.62,4.62,0,0,0,.7-.7c.3-.5-.4-1.1-.8-.7ZM180,242.1c-1.1-2.7-5.7-2.8-7.7-1.3a.375.375,0,0,0,0,.6,5.681,5.681,0,0,0-2.2,5.7,4.477,4.477,0,0,0,1.6,3c1.2.7,3.6.1,4.8-.4,2.4-1.2,4.6-4.9,3.5-7.6Zm-4.7,7.3a6.349,6.349,0,0,1-2.7.4c-1.4-.3-1.8-1.7-2.1-2.9a5.742,5.742,0,0,1,2.6-5.8c2.3-.9,6.3-.6,6.4,2.4.2,2.5-2,5.2-4.2,5.9Zm-5.2-15.9c-.8-.2-1.9.6-1.6,1.5a2.361,2.361,0,0,0,.1,1.2c.6.8,1.9.2,2.3-.5A1.452,1.452,0,0,0,170.1,233.5Zm.2,2c-.3.3-1,.7-1.2.1v-.4c0-.1.1-.1.1-.2a.844.844,0,0,1,.2-.7.494.494,0,0,1,.7-.1.948.948,0,0,1,.2,1.3Zm-7.2,22.7c-.1-.1-.3-.2-.4-.1-.1,0-.2.1-.3.2-.1.4.2.6.4.9s.4.7.6,1,.6,0,.6-.3a3.152,3.152,0,0,0-.9-1.7Zm22.5-16.8c-.7,0-1.6.9-1.9,1.6-.2.5.5.8.8.5.3-.2.4-.5.7-.8a4.62,4.62,0,0,0,.7-.7C186,241.8,185.9,241.4,185.6,241.4Zm16.2,269c-.2-2.2-3.2-3.1-5-2.8-.2,0-.2.2-.2.4-1.6.8-3.3,2.4-3.3,4.1a3.284,3.284,0,0,0,4.3,2.9c1.8-.6,4.5-2.4,4.2-4.6Zm-.7.8c-.2,1.4-2.3,2.6-3.4,3.1-2.4.9-4.9-1.5-3.1-3.8a10.674,10.674,0,0,1,2.5-2.2,5.278,5.278,0,0,1,2.5.4,2.75,2.75,0,0,1,1.5,2.5Zm5.1-1a5.7,5.7,0,0,0-1.1,2.2.27.27,0,0,0,.5.2,14.723,14.723,0,0,0,1-2.2C206.7,510.2,206.3,510,206.2,510.2ZM190.7,509c0-.1-.1-.1-.2-.1-.7.1-.7,1.3-.6,1.8a.313.313,0,0,0,.6,0c.1-.3.2-.6.3-1-.1-.2,0-.5-.1-.7Z" transform="translate(-14.6 303.256)" fill="#51069d"/>
      <path id="Path_2163" d="M112.5,503.8c-2-2.9-7.4-.5-9.7.9-.2.1-.2.2-.2.4a3.808,3.808,0,0,0-.2,5.1,6.733,6.733,0,0,0,8.7,1.1c2-1.4,2.8-5.5,1.4-7.5Zm-1,5.7c-1.3,2.1-4.2,2.4-6.4,1.6-2.4-.9-3.8-3.7-2.2-5.6.1,0,.2.1.4,0a15.634,15.634,0,0,1,6-1.9C112.5,503.3,112.8,507.3,111.5,509.5Zm20.7-5.7a1.978,1.978,0,0,0-.2-1.1.375.375,0,0,0-.6,0,1.978,1.978,0,0,0-.2,1.1c0,.4-.1.8.2,1.1.2.3.6.3.7,0C132.3,504.6,132.2,504.2,132.2,503.8Zm12.9-13.7a2.979,2.979,0,0,0-.1,1.3.439.439,0,0,0,.8.1,2.768,2.768,0,0,0,.3-1.3C146.1,489.7,145.2,489.6,145.1,490.1ZM94.7,501.6a4.286,4.286,0,0,0-2.3,1.2.481.481,0,0,0,.4.7c.8.1,1.6-.7,2.2-1,.4-.3.2-1-.3-.9Zm97.6,18a1.463,1.463,0,0,0-.6,1.9c.2.3.6.4.8.1a3.79,3.79,0,0,0,.6-1.3A.6.6,0,0,0,192.3,519.6Zm122.4-.6c-.9-1.3-3.1-1.7-3.4.1-1.1,1.4-2,3.6-1.4,5.2.6,1.8,2.4,2.3,3.7.8,1-1.4,2.2-4.4,1.1-6.1Zm-.8,3.9c-.4,1.1-.6,1.5-1.7,1.9-.5.5-.9.5-1.2.1a3.165,3.165,0,0,1-.8-1.2,3.457,3.457,0,0,1,.2-2,8.755,8.755,0,0,1,1-2.2h.2c1.6-1.5,2.7.1,2.6,1.7a5.08,5.08,0,0,1-.3,1.7Zm20.9-7.6a12.128,12.128,0,0,1-1.4,1,.27.27,0,0,0,.2.5,3.553,3.553,0,0,0,1.6-1.1c.3-.2-.1-.6-.4-.4Zm-48,1c0-.3-.4-.2-.5,0a4.529,4.529,0,0,0-.3,1.6c0,.4.6.4.7.1a4.735,4.735,0,0,0,.1-1.7Zm8.7,12.4c0-1.1-.9-1.6-1.8-.9a3.622,3.622,0,0,0-1.2,3.1c.3,1.1,1.4.8,2,.2a2.965,2.965,0,0,0,1-2.4Zm-2.2,2.2c-.3-.2-.1-.7-.1-1a2.666,2.666,0,0,1,.7-1.4c.4-.4.8-.4.9.2a1.7,1.7,0,0,1-.1.7,2.577,2.577,0,0,1-.8,1.3C293.7,530.9,293.5,531,293.3,530.9ZM41.2,339.6c-.2.1-.2.2-.2.3a3.543,3.543,0,0,0-2,2.8,2.578,2.578,0,0,0,2.9,2.7c1.6-.3,2.8-2.6,2.8-4.1,0-1.6-2.2-2.1-3.5-1.7Zm2.8,2.6c-.2,1.1-1,2.5-2.2,2.7a2,2,0,0,1-2.3-2.1,3.62,3.62,0,0,1,1.8-2.6h.1a2.208,2.208,0,0,1,1.6,0,1.526,1.526,0,0,1,1,2Zm12,1.1a.367.367,0,0,0-.3.1,1.85,1.85,0,0,0,0,1.2c.1.1.2.1.4,0a.942.942,0,0,0-.1-1.3Zm-29-6.6a12.094,12.094,0,0,0-1.6,1.6c-.2.3.2.5.4.3.6-.5,1.1-1,1.6-1.5C27.7,336.9,27.3,336.4,27,336.7Zm165.7-83.5a.1.1,0,0,0-.1.1,4.572,4.572,0,0,0-1.8,2.8,2.868,2.868,0,0,0,3.2,2.7,3.993,3.993,0,0,0,2.8-3.9c-.1-1.8-2.7-2.3-4.1-1.7Zm2,4.6a2.18,2.18,0,0,1-3.3-1.1,2.1,2.1,0,0,1,.4-2,3.178,3.178,0,0,1,1-1c1,0,2.9-.2,3.2,1,.4,1.1-.5,2.5-1.3,3.1ZM179.3,261a.313.313,0,0,0-.6,0,5.769,5.769,0,0,0-.3,1.4,2.462,2.462,0,0,0-.1,1.2.377.377,0,0,0,.6.1,1.844,1.844,0,0,0,.4-1.3,6.533,6.533,0,0,0,0-1.4Zm7.3-1.1a.481.481,0,0,0-.4.7v.1a.483.483,0,0,0,.7,0v-.1A.414.414,0,0,0,186.6,259.9Z" transform="translate(-14.6 303.256)" fill="#350072"/>
      <path id="Path_2164" d="M406.6,423.7a.367.367,0,0,0-.3.1,7.429,7.429,0,0,0-5.3,2.7c-1.6,1.9,0,3.7,2.1,4.1a6.836,6.836,0,0,0,4-.7c1.1-.5,2.9-1.4,3.6-2.5,1.4-2.4-2.7-3.5-4.1-3.7Zm2.8,3.8a8.112,8.112,0,0,1-3.7,2.1,6.447,6.447,0,0,1-2,.3c-1.2.1-1.7-.5-1.5-1.9q-1.2-1.8.6-2.4a10.389,10.389,0,0,1,3.4-1.5c0,.1.1.1.2.2,1.5.3,4.6.7,3,3.2Zm14.2,4.7a.257.257,0,0,0-.5.1,4.566,4.566,0,0,0,.2,2,.208.208,0,0,0,.4,0A5.043,5.043,0,0,0,423.6,432.2Z" transform="translate(246.54 217.716)" fill="#6c31c9"/>
      <path id="Path_2165" d="M408.5,443.9c-.2,0-.2.2-.2.4a3.472,3.472,0,0,0-2.2,3c0,1.6,1.6,3.3,3.2,2.7,1.5-.6,3.2-2.1,3-3.9C412.2,444.3,410,443.6,408.5,443.9Zm1.4,5.1c-.8.5-1.5.9-2.4.1a3.36,3.36,0,0,1-1-1.6,3.221,3.221,0,0,1,2-3h.1c1.2,0,3,.3,3.2,1.7.1,1.2-1,2.1-1.9,2.8Zm-18.3-5.8a7.106,7.106,0,0,0-.4,2c0,.3.5.4.5.1.2-.7.3-1.3.5-1.9C392.3,443,391.7,442.8,391.6,443.2Zm22.1-5a2.1,2.1,0,0,0-1.1-.4c-.5-.1-.7.7-.2.8a2.462,2.462,0,0,0,1.2.1C413.8,438.7,413.8,438.4,413.7,438.2Z" transform="translate(246.54 226.4)" fill="#a990fc"/>
      <path id="Path_2166" d="M80,401.1c-.7-1.6-2.6-1.3-3.7-.4a4.714,4.714,0,0,0-2.6,3.1c-.7,2.5,2.1,2.7,3.8,2.1,1.6-.7,3.3-2.9,2.5-4.8Zm-3.3,4.3c-.9.2-1.4.3-2.1-.3-.6-.5-.6-.7-.3-1.4a2.177,2.177,0,0,1,.5-.8,7.967,7.967,0,0,1,1.3-1.3c.1,0,.2,0,.2-.1l.3-.3a2.146,2.146,0,0,1,1.5-.4,1.378,1.378,0,0,1,1.3,1.5,3.5,3.5,0,0,1-2.7,3.1Zm8.8,1.7c-.1-.1-.3,0-.2.1a4.128,4.128,0,0,0,.7,1.5.3.3,0,0,0,.5-.3,11.319,11.319,0,0,0-1-1.3Zm-17-5.6c-.3.4-.6.9-.9,1.3-.1.3.2.6.4.3a11.319,11.319,0,0,0,1-1.3C69.4,401.5,68.8,401.1,68.5,401.5Z" transform="translate(-14.6 203.484)" fill="#6c31c9"/>
      <path id="Path_2167" d="M83.5,413.3h-.2a.215.215,0,0,0-.2.2,3.178,3.178,0,0,0-.2,1.4.317.317,0,0,0,.6.1,5.9,5.9,0,0,0,.2-1.4c0-.2-.1-.3-.2-.3ZM95,414.7a.367.367,0,0,0-.3.1c-.5.1-.3.9.2.7.1,0,.2-.1.3-.1C95.7,415.3,95.5,414.6,95,414.7Zm-22.3,3.2a2.019,2.019,0,0,0-3.2-.1c-1.2.7-2.2,1.8-1.5,3.3a2.246,2.246,0,0,0,3.5.7C72.6,421.1,73.5,419.1,72.7,417.9Zm-1.9,3.7a1.661,1.661,0,0,1-2.4-1.5,2.344,2.344,0,0,1,1.1-1.8c.1.1.2.2.4.1.9-.7,2.2-.9,2.5.5a3.242,3.242,0,0,1-1.6,2.7Zm-8.3-9a.755.755,0,0,0,.1.8c.1.2.6.2.5-.1a.9.9,0,0,1,.1-.5c.2-.4-.5-.6-.7-.2Z" transform="translate(-14.6 210.972)" fill="#a990fc"/>
      <path id="Path_2168" d="M250.8,208.1a3.449,3.449,0,0,0-.9,1.2c-.1.3.2.4.4.2.3-.3.6-.7.9-1C251.6,208.3,251.1,207.9,250.8,208.1Zm7.6,2c0,.1,0,.1.1.2a.283.283,0,0,0,.5,0c0-.1,0-.1.1-.2C259.2,209.6,258.2,209.6,258.4,210.1Zm-11.5-3.6a.4.4,0,0,0,0,.8A.4.4,0,0,0,246.9,206.5Zm1.2,6.6c-.4,0-.4.7,0,.7S248.5,213.1,248.1,213.1Z" transform="translate(135.018 93.707)" fill="#6c31c9"/>
      <path id="Path_2169" d="M256.2,215.9a.313.313,0,0,0-.6,0,.637.637,0,0,0,0,.6.313.313,0,0,0,.6,0A.637.637,0,0,0,256.2,215.9ZM243,212c-.3-.1-.5.2-.3.4a1.38,1.38,0,0,0,.3.4c.2.1.4,0,.4-.2.1-.3-.1-.5-.4-.6Zm17.5,2.4a.3.3,0,0,0,0,.6C261,215,261,214.4,260.5,214.4Z" transform="translate(134.59 96.297)" fill="#a990fc"/>
      <path id="Path_2170" d="M385,154.9l-.3.3c-.2.3.2.6.5.4a.52.52,0,0,0,.2-.4c.1-.3-.2-.5-.4-.3Zm-5,8.1a1.148,1.148,0,0,0-1.8.4v.2a1.2,1.2,0,0,0-.1,1.4c.5.7,1.3.3,1.7-.1a1.229,1.229,0,0,0,.2-1.9Zm-.7,1.7c-.3.3-.7.3-.8-.2a1.854,1.854,0,0,1,.2-.7c.2-.3.6-.5.9-.2.4.4,0,.9-.3,1.1Zm7.2-6.4c-.1-.3-.6-.2-.5.1a.367.367,0,0,1-.1.3c-.2.3.3.6.5.3a.592.592,0,0,0,.1-.7Zm-3.3-4.8a.348.348,0,0,0-.1.5h.1C383.7,154.2,383.8,153.2,383.2,153.5Zm-5.6,16.1a.367.367,0,0,0-.1.3c0,.2.2.3.4.2l.2-.2C378.4,169.6,377.8,169.2,377.6,169.6Z" transform="translate(246.54 65.092)" fill="#6c31c9"/>
      <path id="Path_2171" d="M376.2,174.3a2.185,2.185,0,0,0-.3.5c-.1.4.4.5.5.1a.9.9,0,0,0,.1-.5.192.192,0,0,0-.3-.1Zm5.7-1.4-.1.1c-.1.3.1.6.4.4l.1-.1C382.9,173.1,382.1,172.4,381.9,172.9Zm-8.4-5a.251.251,0,0,0,0,.5C373.9,168.4,373.9,167.9,373.5,167.9Zm-60.4-54a3.128,3.128,0,0,0-.5,1,.34.34,0,0,0,.6.3,4.179,4.179,0,0,0,.4-1A.3.3,0,1,0,313.1,113.9Zm7.5-.2c0-.4-.6-.4-.7,0a5.633,5.633,0,0,0,0,1.3c0,.4.6.4.7,0Z" transform="translate(246.54 47.131)" fill="#a990fc"/>
      <path id="Path_2172" d="M309.8,122.3a1,1,0,0,0-.4-.5c-.2-.2-.6.1-.4.3a1,1,0,0,0,.4.5C309.5,122.9,309.9,122.6,309.8,122.3Z" transform="translate(169.947 -14.6)" fill="#c8bdff"/>
      <path id="Path_2173" d="M242.7,248.1c2.7,0,3.8-1.9,5.8-3.1,1.9-1.1,3.4-.1,5.4-.2a1.945,1.945,0,0,0,1.8-1.1,2.49,2.49,0,0,0-1.5-1.8,14.519,14.519,0,0,0-5.4-1.5,9.328,9.328,0,0,0-4.1-.2,11.865,11.865,0,0,0-4.6.5,5.659,5.659,0,0,0-2.7,2.6C237.3,246.1,239.5,248.1,242.7,248.1Z" transform="translate(131.19 112.821)" fill="#350072"/>
      <path id="Path_2174" d="M237.4,247.5c1.3,2.2,4.4,5,7.1,4.7,3.2-.3,3.8-4,6.1-5.6a1.205,1.205,0,0,0,.5-.5c.8.1,1.7.2,2.5.3a2.033,2.033,0,0,0,2.1-2.8,2.131,2.131,0,0,1-1.8,1.1c-2,.1-3.5-.9-5.4.2-2.1,1.2-3.1,3.1-5.8,3.1-3.2,0-5.4-2-5.2-4.9a4.341,4.341,0,0,0-.1,4.4Z" transform="translate(131.071 114.782)" fill="#230054"/>
      <path id="Path_2175" d="M243.8,241.5c-.5-.8-1.9-.5-2.6,0a1.481,1.481,0,0,0-1,1.3c0,1.1,1.3,1.2,2,.9S244.4,242.4,243.8,241.5Zm-1.4,1.7a1.8,1.8,0,0,1-1.2.3c-.6-.2-.8-.7-.4-1.2a1.834,1.834,0,0,1,1-.7,2.462,2.462,0,0,1,1.2-.1C244.2,241.7,242.9,242.9,242.4,243.2Zm8.4-.9c-.2-.2-.3-.4-.5-.5a1.012,1.012,0,0,0,.4.7C250.8,242.5,250.8,242.3,250.8,242.3Zm-6,2.1a3.36,3.36,0,0,0-.5,1.4c0,.1.2.2.2.1.2-.4.3-.9.5-1.3C245.2,244.4,244.9,244.2,244.8,244.4Zm.7,5.3a.883.883,0,0,0-1.2-.5.534.534,0,0,0-.2.9.751.751,0,0,0,.7.7.778.778,0,0,0,.7-1.1Zm-.4.7c-.2,0-.4-.1-.6-.1l-.1-.1v-.1c-.1-.3,0-.7.4-.6.2,0,.3.2.4.3,0,.2.1.5-.1.6Zm2.1-2.9h0a.9.9,0,0,0-.1.5c0,.1.2.1.2,0a.9.9,0,0,1-.1-.5Zm3-2.1c-.1.2.1.4.2.3C250.8,245.5,250.4,245.1,250.2,245.4Z" transform="translate(130.229 113.75)" fill="#51069d"/>
      <path id="Path_2176" d="M328.5,222.6a4.665,4.665,0,0,1-1.2-3.6.15.15,0,1,0-.3,0,4.814,4.814,0,0,0,1.3,3.8C328.4,223,328.6,222.8,328.5,222.6Zm12.3,41.2c-1.2-.5-2.4-.9-3.7-1.3-.1,0-.1.1,0,.2,1.2.5,2.4,1,3.6,1.4.2.1.2-.2.1-.3Zm-29.7-9.6c-.2.6-.4,1.2-.6,1.9-.1.2.2.2.3.1l.6-1.8C311.4,254.1,311.1,254,311.1,254.2Zm36.2-28.5a7.1,7.1,0,0,0-1,1.4c-.3.5-.7,1.1-1,1.7-.2.3.3.5.4.3.3-.5.7-1.1,1-1.6a5.482,5.482,0,0,0,.8-1.5c.1-.3-.1-.5-.2-.3ZM327.7,254a1.893,1.893,0,0,0-1.4,2.2.257.257,0,0,0,.5-.1,1.543,1.543,0,0,1,1-1.6C328.1,254.4,328,253.9,327.7,254Z" transform="translate(188.555 109.011)" fill="#a990fc"/>
      <path id="Path_2177" d="M287.7,243a.114.114,0,1,0-.1.2,1.992,1.992,0,0,1,1.1,1.8.15.15,0,1,0,.3,0A2.368,2.368,0,0,0,287.7,243Zm10.9,22.1a1.58,1.58,0,0,0-.6,2.1c.1.2.4.1.3-.1a1.534,1.534,0,0,1,.4-1.7c.2-.1.1-.4-.1-.3Zm18,12.4c-.3.1-.6.2-.7.5a1.387,1.387,0,0,0,0,.9c.1.2.4.1.4-.2a.951.951,0,0,1,.4-1c.2,0,.1-.3-.1-.2Zm-12.9-64c-.1-.2-.4-.1-.3.1a21.185,21.185,0,0,0,1.4,3.1c.1.2.4.1.3-.1C304.6,215.5,304.1,214.5,303.7,213.5Z" transform="translate(169.043 110.555)" fill="#c8bdff"/>
      <path id="Path_2178" d="M392.3,66.6c-.2.8-.5,1.6-.7,2.5,0,.2.2.3.3.1a18.291,18.291,0,0,0,.6-2.5c.1-.2-.2-.3-.2-.1Zm-8.2,15.9a15.375,15.375,0,0,0-1.2-1.3c-.2-.2-.4.1-.3.3.4.4.8.9,1.2,1.3A.221.221,0,0,0,384.1,82.5Zm-.7-15.4a1.574,1.574,0,0,1-.5-1.7c.1-.2-.2-.3-.3-.1a1.58,1.58,0,0,0,.6,2.1c.1.1.3-.1.2-.3Zm12.8,12.3h-.6a.2.2,0,1,0,0,.4h.6A.208.208,0,0,0,396.2,79.4Z" transform="translate(246.54 -14.6)" fill="#a990fc"/>
      <path id="Path_2179" d="M364.3,71a.2.2,0,1,0-.4,0,12.051,12.051,0,0,0,0,1.9c0,.2.3.2.4,0A6.045,6.045,0,0,0,364.3,71Zm7.8,19.5a5.388,5.388,0,0,0-1.3.7c-.1.1,0,.3.2.3a5.171,5.171,0,0,0,1.3-.6C372.5,90.8,372.3,90.4,372.1,90.5Zm-1.6-30.6c0-.2-.3-.2-.4,0a6.054,6.054,0,0,0,0,1.9c0,.2.4.2.4,0A12.033,12.033,0,0,0,370.5,59.9Z" transform="translate(246.54 -14.6)" fill="#fff"/>
      <path id="Path_2180" d="M124.1,524.7a3.3,3.3,0,0,0-4-.4c-1.3.7-2.4,2.4-1.8,3.9.6,1.7,3.1,1.7,4.4.9C124.1,528.2,125.2,526.1,124.1,524.7Zm-2,3.9c-1.1.6-3.2.5-3.4-1.2a3.408,3.408,0,0,1,1.1-2.5.33.33,0,0,0,.5,0c.8-.8,3-.7,3.5.5C124.2,526.7,123.1,528.1,122.1,528.6Zm-12.2-4.3a.364.364,0,0,0-.7.2,12.1,12.1,0,0,1,.1,1.9.307.307,0,0,0,.6.1A4.1,4.1,0,0,0,109.9,524.3Z" transform="translate(46.843 303.256)" fill="#a990fc"/>
      <path id="Path_2181" d="M99.1,530.5a.251.251,0,0,0-.5,0c0,.5-.1.9-.1,1.4a.3.3,0,1,0,.6,0Zm18,5.6a2.093,2.093,0,0,0-.4.6c-.1.3.2.7.5.5l.6-.6C118.1,536.1,117.4,535.6,117.1,536.1ZM99.6,522.6a.409.409,0,0,0-.8.1v.1a.354.354,0,0,0,.5.5.5.5,0,0,0,.3-.7Z" transform="translate(40.449 303.256)" fill="#c8bdff"/>
      <path id="Path_2182" d="M385,532.9a2.919,2.919,0,0,0-.2.9c0,.1.2.1.3,0a1.344,1.344,0,0,0,.2-.9C385.3,532.8,385.1,532.8,385,532.9Zm-3.6,9.4c-.6.2-1.1.4-1.7.6a2.541,2.541,0,0,0-1.3.5.247.247,0,0,0,.1.4,4.014,4.014,0,0,0,1.5-.3c.6-.2,1.1-.4,1.6-.6.3-.2.1-.7-.2-.6Z" transform="translate(246.54 303.256)" fill="#350072"/>
      <path id="Path_2183" d="M395.2,528.3h-.1a3.422,3.422,0,0,0-3.5,1.1,2.7,2.7,0,0,0-.6,2.4,3.994,3.994,0,0,0,1.6,2c1.5.9,3.3-.6,4-1.9C397.1,530.6,397.1,528.2,395.2,528.3Zm.7,3.8c-.7,1.1-2.3,2.1-3.4,1.1a4.735,4.735,0,0,1-1.1-1.3,2.545,2.545,0,0,1,.4-2.2,3.315,3.315,0,0,1,3.2-1.1c0,.1.1.1.2.1h.2l.1.1h.2c1.1.6.8,2.4.2,3.3Zm-4,5.4a4.4,4.4,0,0,1-.2,1c0,.2.2.3.3.1a1.978,1.978,0,0,0,.2-1.1A.15.15,0,1,0,391.9,537.5Zm19.2,17.4c-.6-3-4.3-3.7-6.8-3.5a.257.257,0,0,0-.1.5,6.241,6.241,0,0,0-3.3,5.7c.3,3.1,3,4,5.7,3.2,2.3-.7,5-3.3,4.5-5.9Zm-3.3,5.1c-2.3,1.3-5.9,1.2-6.6-1.8a5.975,5.975,0,0,1,3.4-6.2c2,.2,4.3.3,5.5,2.2C411.5,556.1,409.6,558.9,407.8,560Zm-.9-27.3c-1-.7-2,.3-2.3,1.2,0,.1,0,.2.1.2a7.568,7.568,0,0,0-.1,1.5c.2,1.2,1.6.3,2.1-.2.7-.6,1.2-2.1.2-2.7Zm-.5,2.6a2.177,2.177,0,0,1-.8.5c-.1,0-.4.1-.5-.1-.1-.1-.1-.4-.1-.5a3.352,3.352,0,0,1,0-1l.1-.1c.2-.7,1.2-1.6,1.8-.7a1.962,1.962,0,0,1-.5,1.9Zm-18.7,23.8c-.3-.6-1-.7-1.5-.8a10.334,10.334,0,0,0-3.5.2c-.2,0-.3.2-.2.4a1,1,0,0,0-.6,1c0,1.5,2.2,1.7,3.3,1.6.9-.2,3.1-1,2.5-2.4Zm-1.7,1.8a4.158,4.158,0,0,1-2.9.1c-.8-.2-.8-.7-.2-1.8a10.871,10.871,0,0,1,1.8-.1h.3a.1.1,0,0,0,.1-.1h.2a5.7,5.7,0,0,1,1.3.1c1.1.3.1,1.5-.6,1.8Zm10.9-14.6a4.627,4.627,0,0,0-.8,2.5c0,.2.3.3.5.1.2-.4.3-.7.5-1.1a6.117,6.117,0,0,1,.5-1.2C397.6,546.2,397.1,546,396.9,546.3Zm9-22.9a3.719,3.719,0,0,0-2-.5.358.358,0,0,0-.1.7,13.556,13.556,0,0,0,2,.2C406.1,523.9,406.2,523.6,405.9,523.4Zm4.2,39.7a2.781,2.781,0,0,0-2.3,2.1c0,.2.2.4.4.2a4.963,4.963,0,0,1,2.1-1.7A.316.316,0,1,0,410.1,563.1Zm-32.9,1.8a4.284,4.284,0,0,1-.5-1.6.251.251,0,0,0-.5,0,1.986,1.986,0,0,0,.7,1.8C377.1,565.3,377.3,565.1,377.2,564.9Z" transform="translate(246.54 303.256)" fill="#51069d"/>
      <path id="Path_2184" d="M210.1,558.7c1.4,1.2,3.3,1.1,5,1.2,1.6.1,3.3.3,4.5,1.5,1.3,1.3,1.4,3.1,1.9,4.7,2.3,7.4,12.2,5.1,17.5,3,.1,0,.2-.1.3-.1a21.247,21.247,0,0,0,4.8-3.7c3.2-3.4,5.1-8.4,1-11.8a7.729,7.729,0,0,0-3.8-1.7,1.446,1.446,0,0,0-.7-.2c-2.4-.6-4.7-1-7.1-1.4a9.191,9.191,0,0,0-2.2-2.2c-2.2-1.3-3.6-.4-5.9-.2-2.2.2-4.2-1.4-6.4-1.7a11.052,11.052,0,0,0-7.8,1.9c-1.4,2-2.7,4.1-2.7,6.6a5.013,5.013,0,0,0,1.6,4.1Z" transform="translate(119.196 303.256)" fill="#a990fc"/>
      <path id="Path_2185" d="M239,569.2c-5.3,2.1-15.2,4.3-17.5-3-.5-1.6-.7-3.5-1.9-4.7s-2.9-1.4-4.5-1.5c-1.7-.1-3.6,0-5-1.2a5.835,5.835,0,0,1-1.7-4.1c0-2.5,1.2-4.6,2.7-6.6a12.737,12.737,0,0,0-3.6,4c-2.8,5-2,11.2-3.3,16.6-.1.3-.1.6-.2.9,0,.1.1.3,0,.4s-.1.2-.2.3a50.415,50.415,0,0,0-1.1,5.6,9.863,9.863,0,0,0,.3,2.4c.2.9.6,4,1.5,5.2h.1a4.667,4.667,0,0,0,5.9.9,148.9,148.9,0,0,1,17.9-10c3.6-1.6,7.5-3,10.9-5-.2-.3-.3-.2-.3-.2Z" transform="translate(114.4 303.256)" fill="#6c31c9"/>
      <path id="Path_2186" d="M221.6,551.7a6.1,6.1,0,0,0-4-.1c-.8.3-2.1.6-2.3,1.6,0,.1,0,.1.1.1a1.376,1.376,0,0,0-.1,1.1c.7,2.4,4.5,1.3,6,.7.7-.3,1.9-.9,2-1.8C223.3,552.5,222.3,552,221.6,551.7Zm-.1,3a5.781,5.781,0,0,1-1.4.5,6.456,6.456,0,0,1-1.9.4,6.6,6.6,0,0,1-1.4-.1c-1.4-.3-1.6-1.3-.6-2.8a7.107,7.107,0,0,1,3-1h.5a3.194,3.194,0,0,1,1.4.3c.9.1,1.2.5.8,1.4.4.7.2,1.1-.4,1.3Zm16.7,4.9c-.7-.3-1.2.5-1.1,1.1,0,.1.1.1.2.1-.3.5-.5,1.2-.2,1.6.6.7,1.3-.5,1.6-.9.2-.7.2-1.6-.5-1.9Zm0,1.9c-.1.1-.2.4-.4.5-.6.1-.8,0-.6-.4a.367.367,0,0,1,.1-.3,5.358,5.358,0,0,1,.5-1.1c0-.1-.1-.2-.2-.1a2.187,2.187,0,0,0-.3.5c.2-.4.4-.9.9-.7C238.7,560.3,238.4,561,238.2,561.5ZM226.5,567c-.1-.1-.3,0-.3.2a4.727,4.727,0,0,0,.7,1.2c.1.1.3,0,.2-.1a1.782,1.782,0,0,0-.6-1.3Zm8.7-14.2a.1.1,0,0,0-.1.1,3.738,3.738,0,0,0-2,1.2,1.566,1.566,0,0,0-.3,1.6,1.212,1.212,0,0,0,1.5.2,25.939,25.939,0,0,0,3.7-1.1c.4-.2.9-.4.8-.9,0-1.2-2.8-1.3-3.6-1.1Zm.4,2.5c-.3.1-1.2.5-1.5.4-.3-.4-.5-.7-.8-1.1a2.361,2.361,0,0,1,.9-.8,5.106,5.106,0,0,1,2-.6,2.2,2.2,0,0,1,.8.1c.3.1,1.2.2,1.3.5.4.8-2.3,1.3-2.7,1.5Z" transform="translate(118.447 303.256)" fill="#6c31c9"/>
      <path id="Path_2187" d="M214.7,564.4a2.773,2.773,0,0,0-3.8,2.3v.1a3.819,3.819,0,0,0,.8,4.1c1.3,1.4,3.4-.4,4.2-1.6,1.1-1.7.8-4.1-1.2-4.9Zm.2,5.4c-.4.4-1.4,1.3-2,1.2a3.115,3.115,0,0,1-1.6-1.4c-.8-1.3-.3-2.6.5-3.7.9-1,2.2-1.6,3.5-.4a2.949,2.949,0,0,1-.4,4.3Zm4.5,4v.2a4.352,4.352,0,0,1-.7.4,4.036,4.036,0,0,0-1.3,1.3.716.716,0,0,0,.5.9c.5.3,1.1,0,1.5-.2a6.1,6.1,0,0,0,1.6-1.2c.3-.4.9-1,.8-1.5-.1-1-2-.3-2.4.1Zm1.8.5a4.862,4.862,0,0,1-1.5,1.7c-.3.2-.9.6-1.2.5-.5-.5-.6-.9-.2-1.2.1-.1.2-.2.3-.2a7.607,7.607,0,0,1,1.9-1.2.1.1,0,0,0,.1-.1c.4-.2.8-.2.6.5Zm-16.1.2c-.1-.1-.3,0-.2.2a6.722,6.722,0,0,1,.6,1.2c.1.1.2.1.2-.1a1.574,1.574,0,0,0-.6-1.3Zm5.1-13.4-2.1.3c-.4,0-.4.7,0,.7a5.549,5.549,0,0,0,2.2-.6c.2-.2.1-.5-.1-.4Z" transform="translate(109.483 303.256)" fill="#a990fc"/>
      <path id="Path_2188" d="M87.8,396.177a1.753,1.753,0,0,0-.1-.787c-.2-1.732-1.4-2.361-2.3-2.046-1.1.315-1.9,2.361-1.5,3.935.3,1.417,1.1,2.046,1.9,1.732h.1c.8.315,1.6-.157,1.9-1.732a.811.811,0,0,1,.1-.472h0a1.39,1.39,0,0,1-.1-.63ZM129,423.253c-.7,0-1.2,1.574-.6,2.361.1,0,.1.157.2.157a.547.547,0,0,0,.9,0c.1,0,.1-.157.2-.157.5-.787,0-2.361-.7-2.361Zm1.8-53.522c-1,0-2,1.417-2,3.148s.9,3.148,2,3.148c1,0,2-1.417,2-3.148C132.7,371.148,131.9,369.731,130.8,369.731ZM23.7,407.511a1.1,1.1,0,0,0-2,0,3.2,3.2,0,0,0,.3,3.621.986.986,0,0,0,1.6-.157,3.56,3.56,0,0,0,.1-3.463ZM111.6,14.6h-.3c-1.5,0-1.5,3.621,0,3.621h.3c1.5,0,1.5-3.621,0-3.621ZM34.4,43.879c0,.157.1.157.1.315.3.787,1,.787,1.3,0,0-.157.1-.157.1-.315.9-2.519-2.5-2.519-1.5,0Zm136.4,51.79a2.193,2.193,0,0,0-.3-2.361c-.3-.63-.9-1.1-1.5-.472a.991.991,0,0,0-.6.787c-1.2,1.889.7,4.722,1.8,2.833C170.5,96.456,170.7,96.142,170.8,95.669ZM330.6,880.547c-2.3,0-2.3,5.51,0,5.51S332.9,880.547,330.6,880.547Z" transform="translate(-14.6 -14.6)" fill="#fff"/>
    </g>
    <g id="trajectoire_hoverboard" transform="translate(74.655 249.822)">
      <path id="Path_2189" d="M702.469,309.5c-.171-.7-.171-1.2-.342-2a10.385,10.385,0,0,0-2.739-4.1,35.763,35.763,0,0,0-7.875-5.4,85.131,85.131,0,0,0-8.559-3.8c-5.82-2.3-11.641-4.1-17.632-5.9q-8.987-2.55-17.974-4.8c-12.154-3-24.308-5.7-36.634-8.3-24.479-5.1-49.3-9.6-74.294-13.8-24.822-4.3-49.986-8.3-74.979-12.1-50.157-7.7-100.486-14.9-150.814-21.9l-75.493-10.5c-25.164-3.6-50.329-7.1-75.15-11-12.5-1.9-24.822-3.9-37.147-6-6.163-1.1-12.154-2.2-18.146-3.4-2.91-.6-5.82-1.3-8.559-2a69.744,69.744,0,0,1-7.532-2.3h-.171c-.171,0-.342.1-.514.1-.514.1-1.027.3-1.541.4-.342.1-.685.2-.514.2a2.46,2.46,0,0,0,.514-.4c.171-.1.171-.3.171-.5v-.3a.448.448,0,0,0-.171-.4,13.226,13.226,0,0,0,1.883.9c1.027-.2,2.225-.4,3.424-.6,5.649-.9,11.983-1.4,18.317-1.8,12.668-.8,25.507-1.3,38.346-1.6,25.849-.6,51.7-.6,77.547-.3s51.869.8,77.718,1.7,51.869,1.7,77.889,2.4c13.01.3,26.02.6,39.03.8,6.505.1,13.01.1,19.686.1,6.505,0,13.181-.2,19.858-.5,3.424-.2,6.676-.4,10.271-.9a39.11,39.11,0,0,0,5.478-1,25.44,25.44,0,0,0,2.91-1.1,5.22,5.22,0,0,0,2.4-2,2.433,2.433,0,0,0,.171-2.4c0-.2-.171-.4-.171-.5-.171-.2-.171-.3-.342-.5a9.562,9.562,0,0,0-1.027-1,22.063,22.063,0,0,0-4.451-2.2c-2.91-1.1-5.992-2-8.9-2.8-5.991-1.6-11.983-3-18.146-4.3s-12.325-2.5-18.488-3.7c-24.651-4.7-49.644-8.7-74.808-12.4-12.668-1.8-25.164-3.5-38-5.1-6.334-.8-12.839-1.5-19.173-2.2l-19-2.2c-12.668-1.5-25.335-3-37.832-4.8-6.163-.9-12.5-1.9-18.317-3.1-1.541-.3-2.91-.7-4.28-1q-2.054-.6-3.595-1.2c-.342-.2-.685-.4-.685-.5-.171,0-.171.1-.342.1l.171-.2v0s0,.1.171.1a3.785,3.785,0,0,1,1.027-.3l2.054-.3c2.91-.4,6.163-.6,9.244-.8,3.253-.2,6.334-.3,9.586-.3,6.505-.1,12.839-.2,19.344-.2,13.01,0,25.849.3,38.859.5,13.01.3,26.02.6,38.859,1,6.505.1,13.01.4,19.686.2a44.4,44.4,0,0,0,5.136-.4,8.406,8.406,0,0,0,2.91-1,1.225,1.225,0,0,0,.685-1.1v-.5a1.339,1.339,0,0,0-.342-.7,7.445,7.445,0,0,0-1.2-.7,3.576,3.576,0,0,0-1.2-.4,19.029,19.029,0,0,0-2.225-.7c-1.541-.4-3.081-.8-4.622-1.1-6.163-1.3-12.325-2.4-18.659-3.4s-12.5-1.9-18.83-2.8c-1.2-.2-2.4-.3-3.595-.5l-1.369,1.3c1.369.2,2.91.4,4.28.6,6.334.9,12.5,1.8,18.659,2.9,6.163,1,12.325,2.1,18.317,3.5,1.541.3,2.91.7,4.28,1.1l2.054.6c.342.1.514.2.856.3l.342.2v.2c0,.1,0,.1-.171.2,0,.1-.514.2-1.2.3a29.754,29.754,0,0,1-4.451.3c-6.334.1-12.839-.2-19.344-.4-13.01-.4-26.02-.9-38.859-1.2-13.01-.4-26.02-.6-39.03-.8q-9.758-.15-19.515,0c-3.253.1-6.505.1-9.929.3-3.253.2-6.676.3-9.929.8a22.8,22.8,0,0,0-2.568.4,9.794,9.794,0,0,0-2.91,1c-.514.3-1.2.7-1.2,1.3v.7a.656.656,0,0,0,.342.5,4.206,4.206,0,0,0,2.054,1.5,28.757,28.757,0,0,0,4.622,1.7l4.622,1.2c6.163,1.4,12.5,2.4,18.83,3.3,12.668,1.9,25.335,3.5,38,5l19,2.3c6.334.8,12.668,1.5,19,2.3,12.668,1.6,25.164,3.4,37.661,5.3,24.993,3.8,49.815,8,74.123,12.7,12.154,2.4,24.308,4.9,35.607,8,2.739.8,5.478,1.6,7.875,2.5a14.709,14.709,0,0,1,2.739,1.3l.171.1v.4l-.342.2a4.746,4.746,0,0,1-1.2.4,30.313,30.313,0,0,1-3.766.7,88.433,88.433,0,0,1-9.073.7c-6.334.3-12.668.4-19.173.4s-12.839-.1-19.344-.2c-13.01-.2-25.849-.6-38.859-1-25.849-.8-51.7-1.8-77.718-2.8s-52.04-1.7-78.061-2.1-52.212-.6-78.232-.1c-13.01.2-26.191.6-39.373,1.4-6.676.4-13.181.9-20.029,1.9-1.712.3-3.424.5-5.307,1a20.555,20.555,0,0,0-2.91.8,11.976,11.976,0,0,0-3.424,1.5,6.609,6.609,0,0,0-1.712,1.5,2.525,2.525,0,0,0-.514,1.1c-.171.4,0,.7,0,1a4.37,4.37,0,0,0,1.883,2.8,12.013,12.013,0,0,0,2.568,1.6c.856.4,1.712.8,2.4,1.1a75.721,75.721,0,0,0,9.415,2.9c3.081.8,6.163,1.5,9.244,2.2,6.163,1.3,12.5,2.5,18.659,3.7,12.5,2.3,24.993,4.3,37.49,6.3,24.993,4,50.157,7.7,75.15,11.4l75.322,11c50.157,7.3,100.315,14.7,150.13,22.7,24.822,4,49.644,8.1,74.295,12.5s49.13,9,72.925,14.1c11.983,2.6,23.795,5.3,35.264,8.2,5.82,1.5,11.469,3,16.947,4.7,5.478,1.6,10.785,3.4,15.578,5.3a56.215,56.215,0,0,1,6.505,2.9,21.354,21.354,0,0,1,4.28,2.9c.342.4.685.7.685.9v1.3a5.2,5.2,0,0,1-.513,1.5,9.2,9.2,0,0,1-1.2,1.5c-2.054,2.1-5.82,4.1-10.442,5.9a116.09,116.09,0,0,1-15.235,4.7,327.1,327.1,0,0,1-35.093,6.4c-12.154,1.6-24.651,2.9-37.147,3.8-25.164,1.8-50.671,2.5-76.006,2.1-6.334-.1-12.668-.3-18.83-.6-6.334-.3-12.668-.6-19-1.1-12.668-.8-25.335-1.9-38.174-3-25.507-2.2-51.013-4.7-76.862-7.1-25.678-2.3-51.527-4.6-77.718-6.1s-52.725-2.6-80.115-1.5a288.68,288.68,0,0,0-41.256,4.3c-3.424.6-6.847,1.4-10.271,2.3-1.712.5-3.424.9-5.136,1.4l-2.568.8-2.568.9a40.719,40.719,0,0,0-9.929,5.1,19.783,19.783,0,0,0-6.505,7.2,13.332,13.332,0,0,0-1.027,7.6,19.1,19.1,0,0,0,2.568,6.7,53.7,53.7,0,0,0,9.758,11.1c7.532,6.7,16.434,12.4,25.507,17.8,18.317,10.8,38.346,20.3,58.717,29.4,10.271,4.5,20.713,8.9,31.156,13.2,5.307,2.1,10.613,4.3,15.92,6.4s10.613,4.1,16.263,6.2l15.407-12.7c-5.136-1.9-10.442-3.9-15.749-5.9s-10.442-4-15.578-6.1c-10.271-4.1-20.542-8.4-30.642-12.7-20.029-8.7-39.373-17.8-56.491-27.7-8.559-4.9-16.6-10.1-22.768-15.5a41.884,41.884,0,0,1-7.361-8c-1.712-2.6-2.054-5-1.2-6.6a5.553,5.553,0,0,1,2.054-2.3,22.248,22.248,0,0,1,4.108-2.2c.514-.2.856-.3,1.541-.5l1.712-.6c1.2-.4,2.4-.7,3.595-1q3.595-.9,7.7-1.8a251.047,251.047,0,0,1,34.922-3.8c24.651-1.1,50.157-.3,75.664,1.1s51.013,3.4,76.691,5.6c25.507,2.2,51.184,4.6,77.033,6.7,13.01,1,25.849,2,39.03,2.8,6.505.4,13.181.7,19.858,1s13.352.4,20.029.5c26.534.3,53.068-.6,79.43-2.7,13.181-1.1,26.363-2.4,39.2-4.3a382.257,382.257,0,0,0,38.517-7.3,145.089,145.089,0,0,0,18.488-5.9,69.148,69.148,0,0,0,8.559-4.1,31.764,31.764,0,0,0,7.361-5.5,15.44,15.44,0,0,0,2.568-3.4,10.4,10.4,0,0,0,1.2-3.7,2.958,2.958,0,0,1-.171-1.4Z" transform="translate(-74.655 -118.5)" fill="url(#linear-gradient-3)"/>
      <path id="Path_2190" d="M198.3,121c-5.4-1-10.9-1.8-16.4-2.5v.1c5.4.8,10.9,1.6,16.3,2.6,2.7.5,5.4,1.1,8.1,1.7l.1-.2c-2.7-.6-5.4-1.2-8.1-1.7Z" transform="translate(7.151 -118.5)" fill="#fff" opacity="0.51"/>
      <path id="Path_2191" d="M697.968,308.1c-.345-.5-.517-1-.862-1.5a5.849,5.849,0,0,0-1.207-1.4,29.085,29.085,0,0,0-6.553-4.4,107.912,107.912,0,0,0-15.866-6.5c-11.21-3.7-22.937-6.8-34.836-9.7s-23.972-5.5-36.044-8c-24.317-5-48.805-9.5-73.467-13.8s-49.5-8.3-74.5-12.1q-37.251-5.7-75.019-11c-25.006-3.5-50.185-6.9-75.364-10.3s-50.185-6.8-75.191-10.4c-25.006-3.5-50.013-7.2-74.847-11.1-12.417-2-24.661-4.1-36.906-6.4-6.036-1.2-12.072-2.4-18.108-3.7-2.932-.7-5.864-1.4-8.8-2.2a78.106,78.106,0,0,1-7.933-2.6,9.675,9.675,0,0,1-2.759-1.6c-.345-.3-.172-.5-.172-.7.172-.1.172-.2.345-.3l.172-.2.345-.2a13.935,13.935,0,0,1,3.622-1.1c1.38-.3,2.932-.6,4.484-.8,6.036-.9,12.589-1.3,18.97-1.7,12.762-.7,25.7-1,38.63-1.2,25.869-.4,51.737-.2,77.606.2,12.934.2,25.869.4,38.8.7l19.315.5c6.381.2,12.934.5,19.315.7,25.869,1.1,51.565,2.2,77.433,3,12.934.4,25.869.7,38.8.8s25.869.1,38.975-.5c3.277-.2,6.553-.4,9.658-.7a80.262,80.262,0,0,0,9.658-1.4,10.317,10.317,0,0,0,4.139-1.8c.172-.3.517-.5.517-.8a.847.847,0,0,0,0-.9,3.618,3.618,0,0,0-1.38-1.3,32.558,32.558,0,0,0-3.794-1.8c-1.38-.5-2.759-1-4.139-1.4-5.691-1.7-11.727-3.1-17.591-4.5-6.036-1.3-12.072-2.6-18.108-3.8-24.316-4.7-49.15-8.8-74.157-12.5-12.589-1.8-25.179-3.4-37.768-5l-37.941-4.6c-12.589-1.6-25.179-3.1-37.768-4.9-6.208-.9-12.417-1.8-18.625-3-3.1-.6-6.036-1.1-8.968-1.8-1.552-.3-2.932-.7-4.311-1.1a13.375,13.375,0,0,1-3.622-1.5,1.2,1.2,0,0,1-.69-1c.172-.3.69-.5,1.38-.7a21.3,21.3,0,0,1,4.484-.7c3.1-.3,6.381-.5,9.485-.6,6.381-.3,12.934-.3,19.315-.4,12.934-.1,25.869.1,38.8.4,6.381.1,12.934.3,19.315.5s12.934.4,19.315.6,12.934.3,19.488.3c3.277,0,6.553,0,9.658-.2,1.552-.1,3.277-.2,4.829-.4a10.382,10.382,0,0,0,2.414-.5c.345-.1.69-.4.69-.7s-.345-.5-.517-.7a17.609,17.609,0,0,0-3.967-1.5c-1.38-.4-2.932-.8-4.484-1.1-2.932-.7-6.036-1.3-9.14-1.9-6.036-1.1-12.245-2.2-18.453-3.1-7.933-1.2-15.866-2.3-23.8-3.4l-.172.2c7.933,1,15.866,2.2,23.8,3.4,6.208,1,12.417,2,18.453,3.2,3.1.6,6.036,1.2,8.968,1.9,1.552.3,2.932.7,4.311,1.1a14.943,14.943,0,0,1,3.967,1.5c.172.2.517.3.517.5s-.172.3-.517.4a13.419,13.419,0,0,1-2.242.4,37.117,37.117,0,0,1-4.829.3c-3.277.1-6.381.1-9.658.1-6.381,0-12.934-.2-19.315-.3-6.381-.2-12.934-.4-19.315-.6s-12.934-.4-19.315-.5c-12.934-.3-25.869-.5-38.8-.5-6.553,0-12.934.1-19.488.3-3.277.1-6.553.3-9.658.6a40.509,40.509,0,0,0-4.829.8,4.414,4.414,0,0,0-1.035.4,2.237,2.237,0,0,0-.862.7c-.172.6.345,1.1.862,1.4a19.445,19.445,0,0,0,3.967,1.7c1.38.4,2.932.8,4.311,1.2,2.932.7,6.036,1.3,9.14,1.9q9.313,1.65,18.625,3c12.589,1.8,25.179,3.4,37.768,5l37.768,4.7c12.589,1.6,25.179,3.2,37.6,5,25.006,3.7,49.668,7.8,73.984,12.6,6.036,1.2,12.072,2.5,18.108,3.8,5.864,1.4,11.9,2.8,17.418,4.5a41.668,41.668,0,0,1,7.588,3,2.758,2.758,0,0,1,1.035.9v.4c0,.2-.172.3-.345.4a9.263,9.263,0,0,1-3.277,1.4,63.955,63.955,0,0,1-9.14,1.3c-3.1.3-6.381.5-9.485.6-12.762.6-25.7.5-38.63.4s-25.869-.5-38.8-.9c-25.869-.8-51.565-1.9-77.433-3.1-6.381-.3-12.934-.6-19.315-.8l-19.315-.5c-12.934-.3-25.869-.6-38.8-.8-25.869-.4-51.737-.6-77.778-.3-12.934.2-25.869.5-38.8,1.2-6.553.4-12.934.8-19.315,1.7-1.552.2-3.277.5-4.829.8a27.984,27.984,0,0,0-4.656,1.5l-.517.3-.517.4a1.934,1.934,0,0,0-.69.8,1.6,1.6,0,0,0,.345,1.9,8.9,8.9,0,0,0,3.622,2.3c2.759,1.2,5.691,2,8.45,2.9,2.932.8,5.864,1.6,8.968,2.2,6.036,1.4,12.072,2.6,18.281,3.8,12.244,2.3,24.661,4.4,37.078,6.5,24.834,4,49.84,7.7,74.847,11.3s50.185,7,75.191,10.5,50.185,6.9,75.191,10.4,50.013,7.2,74.847,11.1,49.668,7.9,74.157,12.2c24.661,4.3,49.15,8.8,73.122,13.8,12.072,2.5,23.972,5.2,35.7,8,11.727,2.9,23.282,6,34.147,9.6a102.548,102.548,0,0,1,15,6.1,22.785,22.785,0,0,1,5.519,3.7c.345.3.517.7.862,1s.345.7.517,1c0,.3.172.6.172,1l-.172,1.2c-.862,3.2-3.449,6.2-7.416,8.7a63.41,63.41,0,0,1-14.314,6.3c-10.692,3.5-22.937,5.8-35.181,7.6-12.417,1.8-25.006,3-37.768,3.9-25.524,1.8-51.22,2.4-77.089,2.2-25.7-.2-51.565-1.2-77.089-3.1-6.381-.5-12.762-1-19.143-1.6-3.277-.3-6.381-.5-9.658-.7l-9.658-.7c-12.762-.9-25.524-2-38.458-3-25.524-2-51.22-4.1-77.089-5.7-25.7-1.6-51.737-2.9-77.778-2.9h-4.829l-4.829.1c-3.277,0-6.553.2-9.83.3s-6.553.3-9.83.5l-4.829.4-2.414.2-2.414.2a171.2,171.2,0,0,0-19.315,2.8c-1.552.4-3.1.7-4.656,1.1l-4.656,1.3-4.311,1.6L138,331a9.1,9.1,0,0,0-1.9,1c-5,2.7-8.8,6.4-9.658,10.4-.862,3.9.69,7.8,3.1,11.2,2.414,3.5,5.864,6.6,9.485,9.7a113.179,113.179,0,0,0,12.072,8.5A297.059,297.059,0,0,0,178.7,386.9c9.658,4.7,19.833,9.2,30.008,13.6,20.522,8.6,41.907,16.7,63.982,24.2l4.139-3.7c-21.73-7.4-42.942-15.4-63.464-23.9-10.175-4.3-20.178-8.7-29.663-13.3a286.878,286.878,0,0,1-27.076-14.7,118.612,118.612,0,0,1-11.555-8.1,51.939,51.939,0,0,1-8.8-8.8c-2.242-3.1-3.449-6.3-2.759-9.3.517-3.1,3.277-5.8,7.416-8.1,3.967-2.3,9.485-3.8,15.176-5a163.664,163.664,0,0,1,17.936-2.7l2.242-.2,2.414-.2,4.656-.4c3.1-.2,6.381-.4,9.485-.5s6.381-.2,9.485-.3l4.829-.1h4.829c25.7-.1,51.392,1.2,77.089,2.8s51.22,3.6,76.916,5.6c12.762,1,25.7,2,38.458,2.9l9.658.7c3.1.2,6.381.4,9.485.7,6.381.6,12.762,1.1,19.315,1.6,25.869,1.8,51.737,2.8,77.778,3,26.041.1,52.082-.5,77.951-2.3,12.934-1,25.7-2.2,38.458-4.1,12.589-1.9,25.179-4.2,36.561-8a68.84,68.84,0,0,0,15.521-7c4.311-2.9,7.588-6.4,8.45-10.2l.172-1.4a1.386,1.386,0,0,0,.172-1.6Z" transform="translate(-74.655 -118.5)" fill="#fff" opacity="0.51"/>
    </g>
    <g id="perso" transform="translate(350.936 524.138)">
      <path id="Path_2192" d="M180.1,388.9a4.885,4.885,0,0,0,1.9,1.5c2.8,1.1,6.7-1.8,6.8-4.3,0,0,2.2.3,5.6.8a7.112,7.112,0,0,1-.9-3.6c-5.7.3-12.8,1.5-13.4,5.6Z" transform="translate(-179.558 -289.1)" fill="#51069d"/>
      <path id="Path_2193" d="M199.8,383.1c-1.3,0-3.6,0-6.3.1a7.112,7.112,0,0,0,.9,3.6c4.4.7,10.8,1.8,17,3.3a43.7,43.7,0,0,1-2.7-6.4A65.432,65.432,0,0,0,199.8,383.1Z" transform="translate(-179.558 -289.1)" fill="#a990fc"/>
      <path id="Path_2194" d="M193.6,383.2a12.311,12.311,0,0,1,.2-2,41.5,41.5,0,0,0-12.1,2.7c-2.4,1.2-2.6,3.4-1.5,5,.5-4.1,7.6-5.3,13.4-5.7Z" transform="translate(-179.558 -289.1)" fill="#51069d"/>
      <path id="Path_2195" d="M193.6,383.2a12.311,12.311,0,0,1,.2-2,41.5,41.5,0,0,0-12.1,2.7c-2.4,1.2-2.6,3.4-1.5,5,.5-4.1,7.6-5.3,13.4-5.7Z" transform="translate(-179.558 -289.1)" fill="#350072"/>
      <path id="Path_2196" d="M221.5,382s-14.8-2-27.7-.7a11.244,11.244,0,0,0-.2,2,46.285,46.285,0,0,1,6.3-.1,66.692,66.692,0,0,1,8.9.7,43.7,43.7,0,0,0,2.7,6.4,92.614,92.614,0,0,1,12.1,3.6l1.2-1.5Z" transform="translate(-179.558 -289.1)" fill="#a990fc"/>
      <path id="Path_2197" d="M221.5,382s-14.8-2-27.7-.7a11.244,11.244,0,0,0-.2,2,46.285,46.285,0,0,1,6.3-.1,66.692,66.692,0,0,1,8.9.7,43.7,43.7,0,0,0,2.7,6.4,92.614,92.614,0,0,1,12.1,3.6l1.2-1.5Z" transform="translate(-179.558 -289.1)" fill="#6c31c9"/>
      <path id="Path_2198" d="M182.6,431.6c3.5,3.5,29.7,29.9,38.9,39.2s31.7,23,58.9,15.3c27.1-7.7-6.9-25.4-17.1-30.1-10.2-4.6-54.3-26.5-59.8-29.2-5.5-2.8-11.7-4.5-18.1-3.1-6.5,1.5-5,5.7-2.8,7.9Z" transform="translate(-179.558 -289.1)" fill="#350072"/>
      <path id="Path_2199" d="M182.6,429.3c3.5,3.4,29.7,28.9,38.9,37.8s31.7,22.2,58.9,14.8c27.1-7.4-6.9-24.5-17.1-29s-54.3-25.5-59.8-28.2-11.7-4.4-18.1-3c-6.5,1.4-5,5.4-2.8,7.6Z" transform="translate(-179.558 -289.1)" fill="#fff"/>
      <path id="Path_2200" d="M249.2,461.3c-3.6-4.7-8.9-8.5-13.6-12-10.7-7.9-21.8-15.7-34-21.3a53.981,53.981,0,0,0-9.4-3.7c-1.9-.5-4.6-.6-6,1.1-1.5,1.9.1,3.7,1.4,5.1a17.044,17.044,0,0,0,1.9,1.9,113.015,113.015,0,0,0,9.6,8.6c4.7,4.1,9,8.5,14,12.2a91.678,91.678,0,0,0,15.4,9.1c5.1,2.3,10.9,4.7,16.6,5.2,1.6.2,3.8.1,4.9-1.3,1.2-1.6.2-3.6-.8-4.9Z" transform="translate(-179.558 -289.1)" fill="#c8bdff"/>
      <path id="Path_2201" d="M206.6,427.4a46.436,46.436,0,0,0,4.8,2.9c4,.1,7.6.2,7.6.2l-1.3-9.5s-1.3.3-3.2.8l2,4.6c-3.8.3-7.1.6-9.9,1Z" transform="translate(-179.558 -289.1)" fill="#a990fc"/>
      <path id="Path_2202" d="M211.4,430.3a26.456,26.456,0,0,1-4.8-2.9c-6,.9-9.6,1.8-9.6,1.8a36.6,36.6,0,0,1,7.4,4.5,3.188,3.188,0,0,0,1.8-.2c1-.8-5.9-3.5-5.7-3.5s5.9.2,10.9.3Z" transform="translate(-179.558 -289.1)" fill="#51069d"/>
      <path id="Path_2203" d="M206.6,427.4c2.8-.4,6.1-.8,9.8-1.1l-2-4.6c-2.7.7-6.9,1.7-11,2.9a24.428,24.428,0,0,0,3.2,2.8Z" transform="translate(-179.558 -289.1)" fill="#6c31c9"/>
      <path id="Path_2204" d="M206.6,427.4a23.747,23.747,0,0,1-3.1-2.7c-4.7,1.3-9.3,2.8-11.6,4.1,0,0,8.4,4.6,12.6,5a36.6,36.6,0,0,0-7.4-4.5A83.033,83.033,0,0,1,206.6,427.4Z" transform="translate(-179.558 -289.1)" fill="#350072"/>
      <path id="Path_2205" d="M244,410.5l-.6-.9c-.8-.3-1.7-.5-2.5-.8,1,.6,2,1.1,3.1,1.7Z" transform="translate(-179.558 -289.1)" fill="#a990fc"/>
      <path id="Path_2206" d="M249.6,424.3c-.8-.2-1.6-.4-2.3-.5a95.845,95.845,0,0,1-14-3.6c8.4,4.1,18.3,5.8,20.5,6.2l.3-.3c-.8-.3-1.7-.6-2.6-1-.7-.3-1.3-.5-1.9-.8Zm-22-16.3c3.4,1.1,7,1.9,10.3,3.3a70.287,70.287,0,0,1,8.7,4.3c.8.2,1.6.5,2.4.7a50.52,50.52,0,0,1-16.6-15.4,57.274,57.274,0,0,0-8.2,5l1.2.9a9.409,9.409,0,0,1,2.2,1.2Zm-.7,17.7c10-1.6,23.4,2.9,24.6,3.3l.4-.4c-2.9-.5-13-2.4-21.4-6.7a16.258,16.258,0,0,0-3.6,3.8Z" transform="translate(-179.558 -289.1)" fill="#672cbc"/>
      <path id="Path_2207" d="M232.1,420.7a9.062,9.062,0,0,0-1.6,1.1c8.4,4.3,18.5,6.2,21.4,6.7l2-2.2c-2.3-.4-12.1-2.2-20.5-6.2a5.349,5.349,0,0,0-1.3.6Z" transform="translate(-179.558 -289.1)" fill="#51069d"/>
      <path id="Path_2208" d="M233.2,420.2a115.052,115.052,0,0,0,14,3.6c.8.2,1.6.3,2.3.5a10.837,10.837,0,0,0,1.9.8,27.726,27.726,0,0,0,2.6,1l4.8-5.2a53.994,53.994,0,0,1-9.7-4.6c-.8-.2-1.6-.5-2.4-.7a87.592,87.592,0,0,0-8.7-4.3c-3.4-1.4-6.9-2.2-10.3-3.3a23.925,23.925,0,0,1-2.1-1.3l-1.2-.9a31.656,31.656,0,0,0-3.5,2.9C222.6,413.7,227.6,417.4,233.2,420.2Z" transform="translate(-179.558 -289.1)" fill="#672cbc"/>
      <path id="Path_2209" d="M233.2,420.2a115.052,115.052,0,0,0,14,3.6c.8.2,1.6.3,2.3.5a10.837,10.837,0,0,0,1.9.8,27.726,27.726,0,0,0,2.6,1l4.8-5.2a53.994,53.994,0,0,1-9.7-4.6c-.8-.2-1.6-.5-2.4-.7a87.592,87.592,0,0,0-8.7-4.3c-3.4-1.4-6.9-2.2-10.3-3.3a23.925,23.925,0,0,1-2.1-1.3l-1.2-.9a31.656,31.656,0,0,0-3.5,2.9C222.6,413.7,227.6,417.4,233.2,420.2Z" transform="translate(-179.558 -289.1)" fill="#51069d"/>
      <path id="Path_2210" d="M230.4,421.8c-5.3-2.7-9.9-6.4-11.4-11.3-4.3,4.5-7.6,10.5-6.2,17.6a15.151,15.151,0,0,0,3.9,7.9c-.5-1.8-.2-3.8,1.6-6,2-2.5,5.1-3.9,8.7-4.4a20.162,20.162,0,0,1,3.4-3.8Z" transform="translate(-179.558 -289.1)" fill="#672cbc"/>
      <path id="Path_2211" d="M230.4,421.8c-5.3-2.7-9.9-6.4-11.4-11.3-4.3,4.5-7.6,10.5-6.2,17.6a15.151,15.151,0,0,0,3.9,7.9c-.5-1.8-.2-3.8,1.6-6,2-2.5,5.1-3.9,8.7-4.4a20.162,20.162,0,0,1,3.4-3.8Z" transform="translate(-179.558 -289.1)" fill="#51069d"/>
      <path id="Path_2212" d="M230.4,421.8a15.262,15.262,0,0,1,1.6-1.1,6.117,6.117,0,0,1,1.2-.5c-5.6-2.7-10.7-6.4-12.4-11.4l-1.8,1.8C220.5,415.4,225.1,419.1,230.4,421.8Z" transform="translate(-179.558 -289.1)" fill="#51069d"/>
      <path id="Path_2213" d="M230.4,421.8a15.262,15.262,0,0,1,1.6-1.1,6.117,6.117,0,0,1,1.2-.5c-5.6-2.7-10.7-6.4-12.4-11.4l-1.8,1.8C220.5,415.4,225.1,419.1,230.4,421.8Z" transform="translate(-179.558 -289.1)" fill="#350072"/>
      <path id="Path_2214" d="M224.5,437.6c-2.1-3.8-1.1-6.9,1.2-10.3.4-.5.7-1.1,1.1-1.6-3.5.6-6.7,1.9-8.7,4.4-1.8,2.2-2.1,4.2-1.6,6,3.5,3.9,8.5,5.9,13,6.9A18.7,18.7,0,0,1,224.5,437.6Z" transform="translate(-179.558 -289.1)" fill="#a990fc"/>
      <path id="Path_2215" d="M224.5,437.6c-2.1-3.8-1.1-6.9,1.2-10.3.4-.5.7-1.1,1.1-1.6-3.5.6-6.7,1.9-8.7,4.4-1.8,2.2-2.1,4.2-1.6,6,3.5,3.9,8.5,5.9,13,6.9A18.7,18.7,0,0,1,224.5,437.6Z" transform="translate(-179.558 -289.1)" fill="#6c31c9"/>
      <path id="Path_2216" d="M194.4,404.7c-4.1,3.6-7.8,7.7-6.4,12.5,2.2.6,4.7.1,5.5-.7,1.4-1.4,0-4.2,0-4.2a47.181,47.181,0,0,1,4.6-4.7,14.438,14.438,0,0,1-3.7-2.9Z" transform="translate(-179.558 -289.1)" fill="#51069d"/>
      <path id="Path_2217" d="M216.7,403.3c-6.2-.8-12.5-.8-18.6-1.7-1.2,1-2.5,2-3.7,3.1a11.117,11.117,0,0,0,3.7,2.9c1.3-1.2,2.3-2.1,2.3-2.1,2.9.9,16,4.5,28,7.8-2.8-2.2-8.6-6-11.7-10Z" transform="translate(-179.558 -289.1)" fill="#a990fc"/>
      <path id="Path_2218" d="M194.4,404.7a10.5,10.5,0,0,1-1.7-2.8c-4.6,4.6-9.3,10.6-8.1,12.8a5.422,5.422,0,0,0,3.4,2.5c-1.4-4.8,2.3-8.9,6.4-12.5Z" transform="translate(-179.558 -289.1)" fill="#350072"/>
      <path id="Path_2219" d="M244,410.5c-1.1-.5-2.1-1.1-3.2-1.6.8.3,1.7.5,2.5.8l-9.7-13.3c-18.7-.9-34.2,0-34.2,0a35.016,35.016,0,0,0-6.7,5.6,12.332,12.332,0,0,0,1.7,2.8c1.2-1.1,2.5-2.1,3.7-3.1,6.1,1,12.4,1,18.6,1.7,3,4,8.8,7.8,11.8,9.9,11.3,3.1,21.7,5.9,21.7,5.9l-6.2-8.7Z" transform="translate(-179.558 -289.1)" fill="#6c31c9"/>
      <path id="Path_2220" d="M270,436.9c-1.5-4.3-18.6-8-18.6-8-1.2-.4-14.6-4.9-24.6-3.3a15.26,15.26,0,0,0-1.1,1.6c-2.3,3.4-3.3,6.5-1.2,10.3a16.316,16.316,0,0,0,5,5.4,41.716,41.716,0,0,0,10.2,1.1s5.6.1,10.4,0a81.81,81.81,0,0,0-11.2,4.6,20.882,20.882,0,0,0,6.8,2.2c10.8-3.3,25.4-9.1,24.3-13.9Z" transform="translate(-179.558 -289.1)" fill="#a990fc"/>
      <path id="Path_2221" d="M239,448.7a81.81,81.81,0,0,1,11.2-4.6c-4.9.1-10.4,0-10.4,0a43.868,43.868,0,0,0-4.4,2.1,19.258,19.258,0,0,0,3.6,2.5Z" transform="translate(-179.558 -289.1)" fill="#6c31c9"/>
      <path id="Path_2222" d="M235.1,454.2s4.8-1.3,10.8-3.2a20.88,20.88,0,0,1-6.8-2.2,89.882,89.882,0,0,0-8.4,4.8c4.3,3.8,10.7,9.7,10.9,11.8,1.4.5,2.5.6,3.1.1,1.2-1.6-9.6-11.3-9.6-11.3Z" transform="translate(-179.558 -289.1)" fill="#51069d"/>
      <path id="Path_2223" d="M230.7,453.6a54.775,54.775,0,0,1,8.4-4.8,19.259,19.259,0,0,1-3.6-2.5,75.842,75.842,0,0,0-7.8,4.8c-1.3,1-2.6,2-3.8,3.1,0,0,1.2.9,3.1,2.3,3.9,2.8,10.6,7.5,14.7,8.9-.3-2.1-6.7-8.1-11-11.8Zm68.8-39.5c-12.9-1.6-27.4-6.6-37.3-15.3-9.7-8.4-14.3-21.5-16.5-33.8-4.6-25.4,2.5-56.2,28.2-67.7a65.637,65.637,0,0,1,29.3-5.3,71.149,71.149,0,0,0-20.3-2.9c-39.8,0-72.1,31.8-72.1,71.1s32.3,71.1,72.1,71.1a72.215,72.215,0,0,0,56.7-27.2,56.886,56.886,0,0,1-40.1,10Z" transform="translate(-179.558 -289.1)" fill="#350072"/>
      <path id="Path_2224" d="M354.8,353.9a48.885,48.885,0,0,1-7.1,22.1c-7.1,11.5-18.9,19.5-32.8,20.5-24,1.8-45.1-17.7-47-43.6-2-25.9,15.9-48.4,39.9-50.2a39.568,39.568,0,0,1,12.4,1,41.478,41.478,0,0,1,12.8,5.4,72.226,72.226,0,0,0-29.7-17,67.047,67.047,0,0,0-29.3,5.3c-25.7,11.5-32.7,42.3-28.2,67.7,2.2,12.3,6.8,25.4,16.5,33.8,9.9,8.6,24.4,13.7,37.3,15.3a56.522,56.522,0,0,0,40.1-10,69.766,69.766,0,0,0,15.4-43.9c-.1-2.3-.2-4.3-.3-6.4Z" transform="translate(-179.558 -289.1)" fill="#51069d"/>
      <path id="Path_2225" d="M307.7,302.6c-24,1.8-41.8,24.3-39.9,50.2,2,25.9,23,45.5,47,43.6,13.9-1.1,25.7-9,32.8-20.5a48.494,48.494,0,0,0,7.1-22.1,70.584,70.584,0,0,0-21.8-44.9,43.621,43.621,0,0,0-12.8-5.4,46.253,46.253,0,0,0-12.4-.9Z" transform="translate(-179.558 -289.1)" fill="#6c31c9"/>
      <path id="Path_2226" d="M333.5,320.9c-2.8-1.8-8.5-4-11.4-1.5a3.886,3.886,0,0,0-.4,5.8,2.562,2.562,0,0,0,1.4,1.3h.1a10.1,10.1,0,0,0,2.2,1.8,19.389,19.389,0,0,1,5.3,5c2.4,3.7,2.9,8.5,3.4,12.8.4,3.1,1.1,7,5.2,6.6,4-.4,4.9-4.7,5-8.1,0-8.4-3.7-19-10.8-23.7ZM344,360.3a4.37,4.37,0,0,0-3.8-3.3,4.894,4.894,0,0,0-4.4,1.7c-1.1,1.3-2.1,3.3-1.4,5,.6,1.4,2,3,3.7,2.8h.1a5.813,5.813,0,0,0,4.4-1.8,4.625,4.625,0,0,0,1.4-4.4Zm-131.4-9.8c3.3,2.7,8.2-.1,12.1-.2,5.8-.2,11,3.3,11,9.5,0,3.4-1.5,6.6-2.3,9.9a45.226,45.226,0,0,0-1.3,9.6,40.909,40.909,0,0,0,3.9,20.1c6.4,12.7,19.7,18.9,32.6,22.9,15,4.7,29.6,7.4,44.8,1.7,9.1-3.4,17.1-9.2,23.9-16.1.1-.4.1-.7-.1-.9-24,26.4-70.8,22.3-95.1-4.4-10.9-14.4-.7-37.7-1.9-51.6s-15-5.8-21.3-4.9-4.1-9.5-4.1-9.5c-1.1,0-2.8.8-4.4,3-.2,3.9-.7,8.5,2.2,10.9Z" transform="translate(-179.558 -289.1)" fill="#fff"/>
      <path id="Path_2227" d="M205.7,360.6c.5,18.5,14.1,60.6,71.3,70.6,40.7,4.6,59.2-18.3,60.2-23.3-6.8,6.9-14.8,12.7-23.9,16.1-15.1,5.7-29.8,3-44.8-1.7-12.9-4-26.2-10.3-32.6-22.9a40.909,40.909,0,0,1-3.9-20.1,51.568,51.568,0,0,1,1.3-9.6c.8-3.3,2.3-6.5,2.3-9.9,0-6.2-5.2-9.7-11-9.5-3.9.1-8.8,2.9-12.1.2-2.9-2.4-2.4-7-2.2-10.8-2.5,3.3-4.9,9.7-4.6,20.9Z" transform="translate(-179.558 -289.1)" fill="#a990fc"/>
      <path id="Path_2228" d="M216.4,363.8c.7-7,4.5-11.9,8.6-10.8,4.1,1,6.9,7.5,6.3,14.5-.7,7-4.5,11.9-8.6,10.8-4.1-1-6.9-7.5-6.3-14.5" transform="translate(-179.558 -289.1)" fill="url(#linear-gradient-4)"/>
      <path id="Path_2229" d="M219.8,364.5c.3-2.9,1.9-5,3.6-4.6s2.9,3.2,2.6,6.1-1.9,5-3.6,4.6-2.9-3.2-2.6-6.1" transform="translate(-179.558 -289.1)" fill="#fff"/>
      <path id="Path_2230" d="M224.8,392.3l-1.2,1.5c.7.3,1.4.5,2,.8Z" transform="translate(-179.558 -289.1)" fill="#a990fc"/>
    </g>
  </g>
</svg>
