<svg version="1" xmlns="http://www.w3.org/2000/svg" width="418.667" height="418.667" viewBox="0 0 314.000000 314.000000"><path d="M0 160.5C0 264.3 0 265 2 265c1.1 0 2 .4 2 1 0 .7 52.3 1 155 1h155v-16c0-15.3-.1-16-2-16-1.1 0-2-.7-2-1.5 0-1.2-1.7-1.5-9.4-1.5-5.2 0-10.1.3-11 .6-1.2.5-1.6 2-1.6 6v5.4h-39.7c-21.9 0-59-.3-82.5-.7l-42.8-.6V78h164.9l.3 6.2.3 6.3 10.8.3 10.7.3V56H0v104.5zm101 0V243H21V78h80v82.5z"/><path d="M36 102.5V113h52V92H36v10.5zM36 136.5V147h52v-21H36v10.5zM46 191.6c0 19.1.2 21.5 1.5 21 2-.7 34.7-19.6 35.8-20.5.6-.6-35.2-22.1-36.8-22.1-.3 0-.5 9.7-.5 21.6zM257.5 108.6c-1.1.2-4.4.9-7.2 1.5-10.1 2-21.1 11.7-24.8 21.6-1.3 3.6-1.4 3.3-1.4-7.5L224 113h-2.5c-1.6 0-2.5-.6-2.5-1.5 0-1.3-5.2-1.5-41-1.5h-41v23h2.5c1.6 0 2.5.6 2.5 1.5 0 1.2 1.9 1.5 11 1.5h11v86h2.5c1.6 0 2.5.6 2.5 1.5 0 1.3 2.2 1.5 13.5 1.5H196v-89h28v7.6c0 4.2.5 9.5 1.2 11.6 3.2 10.8 18.5 20.4 40.8 25.9 15.7 3.8 18.4 6.3 14.5 13.8-2.8 5.5-13.7 8.3-23 5.9-4.5-1.2-5.1-1.7-7.5-6.5-1.9-4-2.9-5-4.3-4.6-1.3.3-2-.2-2.4-1.6-.4-1.4-1.1-2-2.2-1.7-.9.3-6.3 1.5-12 2.8-5.7 1.2-10.5 2.8-10.8 3.5-.3.6.8 3.9 2.2 7.2 4.7 10.5 18.4 21 32 24.5 7 1.9 23 2.1 30.7.5 8.1-1.7 15.3-5.7 20.9-11.6 6.6-6.9 9.1-12.9 9.7-22.3 1.1-20.1-11.7-32.2-41.9-39.4-14.9-3.6-16.9-4.7-16.9-9.4 0-6.1 4.8-9.2 14.3-9.2 7.3 0 10.5 1.8 12.7 7 .9 2.2 1.7 2.9 3.1 2.5 1.2-.4 1.9.1 2.4 1.5.4 1.2 1.2 1.9 1.8 1.7.7-.2 5.8-1.9 11.5-3.8 9.9-3.2 10.3-3.5 9.7-5.9-2.1-8.8-15.5-20.7-28.1-24.9-5.9-1.9-20.9-3.4-24.9-2.5z"/></svg>