<?xml version="1.0"?>
<svg xmlns="http://www.w3.org/2000/svg" viewBox="0 0 1237.15 211.29">
  <defs>
    <style>.cls-1,.cls-2,.cls-5,.cls-6{fill:none;}.cls-2,.cls-6{stroke:#061bf0;}.cls-2,.cls-5,.cls-6{stroke-miterlimit:10;}.cls-2{stroke-width:20px;}.cls-3{fill:#fff;fill-rule:evenodd;}.cls-4{fill:#ee01ed;}.cls-5{stroke:#ee01ed;}.cls-5,.cls-6{stroke-width:21px;}.cls-7{fill:#061bf0;}</style>
  </defs>
  <title>Fichier 11</title>
  <g id="Calque_2">
    <g id="Calque_1-2">
      <rect class="cls-1" x="103.95" y="10.5" width="187.28" height="187.28"/>
      <rect class="cls-1" x="10.5" y="10.5" width="101.55" height="187"/>
      <line class="cls-2" x1="36.5" y1="45.5" x2="87.5" y2="45.5"/>
      <line class="cls-2" x1="36.92" y1="79.8" x2="87.92" y2="79.8"/>
      <polygon class="cls-3" points="56.38 130.87 63.35 134.9 56.38 138.92 56.38 130.87"/>
      <polygon class="cls-4" points="46.38 113.55 46.38 156.24 83.35 134.9 46.38 113.55"/>
      <polyline class="cls-5" points="303.62 179.22 303.85 200.78 116.59 200.6 15.15 200.5 15.15 189.79"/>
      <polyline class="cls-6" points="299 176.2 299.23 197.78 111.95 197.6 10.5 197.5 10.5 10.5 112.05 10.5 299.23 10.5 299.23 33.45"/>
      <line class="cls-6" x1="112.05" y1="10.5" x2="111.95" y2="197.6"/>
      <path class="cls-4" d="M447.86,55.58V77.47H421v88.75H395.32V77.47h-27V55.58Z"/>
      <path class="cls-4" d="M520.55,129.34H469c0,1.46-.08,2.73-.08,3.81q0,8.76,4.56,13.21a15.1,15.1,0,0,0,10.92,4.46q11.82,0,14.2-12.89L520,139.55q-9,28.38-36.43,28.37-12,0-20.36-4.9a38.43,38.43,0,0,1-13.81-14.31Q444,139.31,444,126.18q0-19.53,10.91-31.53t28.06-12A36.1,36.1,0,0,1,509.48,93.8Q520.55,104.95,520.55,129.34Zm-51.67-14h28.49q-1.11-16.86-13.57-16.86Q470.47,98.46,468.88,115.32Z"/>
      <path class="cls-4" d="M601.88,135.5Q600.53,150,590.65,159t-25.51,8.95q-17,0-27.66-11.47T526.8,125.77q0-19.2,10.92-31.16t29.16-12q14.68,0,24.33,9a33.14,33.14,0,0,1,10.67,22.53l-22.06,1.3q-1.11-14.74-12.54-14.75-14.06,0-14,23.5,0,15.64,3.93,19.86a12.59,12.59,0,0,0,9.56,4.22q11,0,13.1-14.19Z"/>
      <path class="cls-4" d="M633.46,55.58v39.9Q640,82.66,655.12,82.65A25.57,25.57,0,0,1,669,86.26a19.74,19.74,0,0,1,8.1,9.28q2.34,5.67,2.34,16.62v54.06H655.76V120a67.14,67.14,0,0,0-.63-11.36,9.36,9.36,0,0,0-2.89-5.15,8,8,0,0,0-5.65-2.07,13.91,13.91,0,0,0-8.78,3.53q-4.35,3.53-4.35,15.05v46.18H610.52V55.58Z"/>
      <path class="cls-4" d="M764.56,166.22H740.91v-46a67.49,67.49,0,0,0-.64-11.43,9.29,9.29,0,0,0-3.09-5.23,9.1,9.1,0,0,0-6.19-2.14q-12.47,0-12.47,18.8v46H694.87V84.35h22V98.22q5.48-9.9,10.79-12.73a24.1,24.1,0,0,1,11.51-2.84q11.43,0,18.41,6.29t7,24.68Z"/>
      <path class="cls-4" d="M813.23,82.65q18.33,0,28.59,12.24t10.27,30.64q0,18.16-10.67,30.27t-28.34,12.12q-17.13,0-27.4-12t-10.26-30.8q0-13,4.63-22.17a39.12,39.12,0,0,1,12.73-14.71Q800.87,82.66,813.23,82.65Zm.64,15.81a11.25,11.25,0,0,0-10.13,5.31q-3.4,5.31-3.4,21.11,0,14.52,3.24,20.83A10.68,10.68,0,0,0,813.71,152q6,0,9.73-5.39t3.72-20.55q0-16.12-3.28-21.89A10.79,10.79,0,0,0,813.87,98.46Z"/>
      <path class="cls-4" d="M945.9,79.9l-21.59,7.37Q920,74.15,905.86,74.14q-15,0-15,10a9,9,0,0,0,2.81,6.73q2.82,2.76,12.72,4.79,16.56,3.41,24.25,6.89a31.21,31.21,0,0,1,13,11.23,30,30,0,0,1,5.27,17.3q0,15-11.3,25.93T904,167.92q-16.65,0-28.35-7.74t-15.42-23l23.49-5.43q4,15.48,22,15.48,8.72,0,13-3.44a10.29,10.29,0,0,0,4.28-8.23,8.64,8.64,0,0,0-3.88-7.54q-3.88-2.67-15-5-20.68-4.38-29.49-12T865.9,88.89A33.22,33.22,0,0,1,876.4,64q10.5-10.13,28.51-10.13Q936.77,53.88,945.9,79.9Z"/>
      <path class="cls-4" d="M1034.23,129.34H982.65c-.06,1.46-.08,2.73-.08,3.81q0,8.76,4.56,13.21A15.07,15.07,0,0,0,998,150.82q11.84,0,14.21-12.89l21.43,1.62q-9,28.38-36.43,28.37-12,0-20.36-4.9a38.36,38.36,0,0,1-13.81-14.31q-5.43-9.41-5.44-22.53,0-19.53,10.92-31.53t28.05-12a36.1,36.1,0,0,1,26.55,11.15Q1034.23,104.95,1034.23,129.34Zm-51.66-14h28.49Q1010,98.46,997.49,98.46,984.16,98.46,982.57,115.32Z"/>
      <path class="cls-4" d="M1068,166.22h-22.94V84.35h21.67V99.59q5-17,17.3-17c1.17,0,2.59.08,4.29.24v23.84q-7.23,0-11.23,2.26t-6.55,8.15q-2.53,5.88-2.54,15.85Z"/>
      <path class="cls-4" d="M1167.56,84.35l-27.47,81.87h-18.4l-27.55-81.87h24.59l15.45,51.88L1150,84.35Z"/>
      <path class="cls-4" d="M1233.73,104.13l-17.22,4.7q-3-11.1-15.63-11.1-11.91,0-11.91,7.39a5.69,5.69,0,0,0,2.18,4.67q2.19,1.74,11.39,2.95,13.74,1.85,20.32,4.28a21,21,0,0,1,10.44,8.19q3.84,5.74,3.85,14.18a25.7,25.7,0,0,1-9.41,20.59q-9.4,8-26.31,7.94-30.63,0-36.59-24.23l19.92-3q2.46,11,17.78,11a20.93,20.93,0,0,0,9.92-2.15c2.7-1.44,4-3.37,4-5.81,0-3.79-3-6-9-6.73q-24.29-3.06-31.94-9.5t-7.66-18a24.3,24.3,0,0,1,8.89-19.29q8.88-7.62,24.92-7.62,12.69,0,20.32,5.11T1233.73,104.13Z"/>
      <path class="cls-7" d="M442.86,52.58V74.47H416v88.75H390.32V74.47h-27V52.58Z"/>
      <path class="cls-7" d="M515.55,126.34H464c0,1.46-.08,2.73-.08,3.81q0,8.76,4.56,13.21a15.1,15.1,0,0,0,10.92,4.46q11.82,0,14.2-12.89L515,136.55q-9,28.38-36.43,28.37-12,0-20.36-4.9a38.43,38.43,0,0,1-13.81-14.31Q439,136.31,439,123.18q0-19.53,10.91-31.53t28.06-12A36.1,36.1,0,0,1,504.48,90.8Q515.55,101.95,515.55,126.34Zm-51.67-14h28.49q-1.11-16.86-13.57-16.86Q465.47,95.46,463.88,112.32Z"/>
      <path class="cls-7" d="M596.88,132.5Q595.53,147,585.65,156t-25.51,8.95q-17,0-27.66-11.47T521.8,122.77q0-19.2,10.92-31.16t29.16-12q14.68,0,24.33,9a33.14,33.14,0,0,1,10.67,22.53l-22.06,1.3q-1.11-14.74-12.54-14.75-14.06,0-14,23.5,0,15.64,3.93,19.86a12.59,12.59,0,0,0,9.56,4.22q11,0,13.1-14.19Z"/>
      <path class="cls-7" d="M628.46,52.58v39.9Q635,79.66,650.12,79.65A25.57,25.57,0,0,1,664,83.26a19.74,19.74,0,0,1,8.1,9.28q2.34,5.67,2.34,16.62v54.06H650.76V117a67.14,67.14,0,0,0-.63-11.36,9.36,9.36,0,0,0-2.89-5.15,8,8,0,0,0-5.65-2.07,13.91,13.91,0,0,0-8.78,3.53q-4.35,3.53-4.35,15.05v46.18H605.52V52.58Z"/>
      <path class="cls-7" d="M759.56,163.22H735.91v-46a67.49,67.49,0,0,0-.64-11.43,9.29,9.29,0,0,0-3.09-5.23A9.1,9.1,0,0,0,726,98.46q-12.47,0-12.47,18.8v46H689.87V81.35h22V95.22q5.48-9.9,10.79-12.73a24.1,24.1,0,0,1,11.51-2.84q11.43,0,18.41,6.29t7,24.68Z"/>
      <path class="cls-7" d="M808.23,79.65q18.33,0,28.59,12.24t10.27,30.64q0,18.16-10.67,30.27t-28.34,12.12q-17.13,0-27.4-12t-10.26-30.8q0-13,4.63-22.17a39.12,39.12,0,0,1,12.73-14.71Q795.87,79.66,808.23,79.65Zm.64,15.81a11.25,11.25,0,0,0-10.13,5.31q-3.4,5.31-3.4,21.11,0,14.52,3.24,20.83A10.68,10.68,0,0,0,808.71,149q6,0,9.73-5.39t3.72-20.55q0-16.12-3.28-21.89A10.79,10.79,0,0,0,808.87,95.46Z"/>
      <path class="cls-7" d="M940.9,76.9l-21.59,7.37Q915,71.15,900.86,71.14q-15,0-15,10a9,9,0,0,0,2.81,6.73q2.82,2.76,12.72,4.79Q917.91,96,925.6,99.52a31.21,31.21,0,0,1,13,11.23,30,30,0,0,1,5.27,17.3q0,15-11.3,25.93T899,164.92q-16.65,0-28.35-7.74t-15.42-23l23.49-5.43q4,15.48,22,15.48,8.72,0,13-3.44a10.29,10.29,0,0,0,4.28-8.23,8.64,8.64,0,0,0-3.88-7.54q-3.88-2.67-15-5-20.68-4.38-29.49-12T860.9,85.89A33.22,33.22,0,0,1,871.4,61q10.5-10.12,28.51-10.13Q931.77,50.88,940.9,76.9Z"/>
      <path class="cls-7" d="M1029.23,126.34H977.65c-.06,1.46-.08,2.73-.08,3.81q0,8.76,4.56,13.21A15.07,15.07,0,0,0,993,147.82q11.84,0,14.21-12.89l21.43,1.62q-9,28.38-36.43,28.37-12,0-20.36-4.9a38.36,38.36,0,0,1-13.81-14.31q-5.43-9.41-5.44-22.53,0-19.53,10.92-31.53t28.05-12a36.1,36.1,0,0,1,26.55,11.15Q1029.23,101.95,1029.23,126.34Zm-51.66-14h28.49Q1005,95.46,992.49,95.46,979.16,95.46,977.57,112.32Z"/>
      <path class="cls-7" d="M1063,163.22h-22.94V81.35h21.67V96.59q5-17,17.3-17c1.17,0,2.59.08,4.29.24v23.84q-7.23,0-11.23,2.26t-6.55,8.15q-2.53,5.88-2.54,15.85Z"/>
      <path class="cls-7" d="M1165.56,81.35l-27.47,81.87h-18.4l-27.55-81.87h24.59l15.45,51.88L1148,81.35Z"/>
      <path class="cls-7" d="M1231.73,101.13l-17.22,4.7q-3-11.1-15.63-11.1-11.91,0-11.91,7.39a5.69,5.69,0,0,0,2.18,4.67q2.19,1.74,11.39,2.95,13.74,1.85,20.32,4.28a21,21,0,0,1,10.44,8.19q3.84,5.75,3.85,14.18a25.7,25.7,0,0,1-9.41,20.59q-9.4,8-26.31,7.94-30.63,0-36.59-24.23l19.92-3q2.46,11,17.78,11a20.93,20.93,0,0,0,9.92-2.15c2.7-1.44,4-3.37,4-5.81,0-3.79-3-6-9-6.73q-24.29-3.06-31.94-9.5t-7.66-18a24.3,24.3,0,0,1,8.89-19.29q8.88-7.62,24.92-7.62,12.69,0,20.32,5.11T1231.73,101.13Z"/>
      <path class="cls-4" d="M223.32,56.84V78.72h-27.4v88.76H169.66V78.72H142.1V56.84Z"/>
      <path class="cls-4" d="M310.71,81.15l-22,7.38q-4.44-13.14-18.84-13.13-15.36,0-15.36,10a9,9,0,0,0,2.87,6.73q2.88,2.75,13,4.78,16.92,3.42,24.77,6.9A31.67,31.67,0,0,1,308.32,115a29.62,29.62,0,0,1,5.39,17.31q0,15-11.54,25.93T268,169.18q-17,0-28.95-7.74t-15.75-23l24-5.43q4,15.48,22.49,15.48,8.89,0,13.27-3.45t4.37-8.22a8.59,8.59,0,0,0-4-7.54q-4-2.67-15.3-5-21.12-4.38-30.11-12t-9-22.16a32.91,32.91,0,0,1,10.72-24.89q10.74-10.13,29.12-10.13Q301.4,55.13,310.71,81.15Z"/>
      <path class="cls-7" d="M218.32,53.84V75.72h-27.4v88.76H164.66V75.72H137.1V53.84Z"/>
      <path class="cls-7" d="M305.71,78.15l-22,7.38q-4.44-13.14-18.84-13.13-15.36,0-15.36,10a9,9,0,0,0,2.87,6.73q2.88,2.75,13,4.78,16.92,3.42,24.77,6.9A31.67,31.67,0,0,1,303.32,112a29.62,29.62,0,0,1,5.39,17.31q0,15-11.54,25.93T263,166.18q-17,0-28.95-7.74t-15.75-23l24-5.43q4,15.48,22.49,15.48,8.89,0,13.27-3.45t4.37-8.22a8.59,8.59,0,0,0-4-7.54q-4-2.67-15.3-5-21.12-4.38-30.11-12t-9-22.16a32.91,32.91,0,0,1,10.72-24.89q10.74-10.12,29.12-10.13Q296.4,52.13,305.71,78.15Z"/>
    </g>
  </g>
</svg>
