<?xml version="1.0" encoding="utf-8"?>
<!-- Generator: Adobe Illustrator 24.0.0, SVG Export Plug-In . SVG Version: 6.00 Build 0)  -->
<svg version="1.1" id="Calque_1" xmlns="http://www.w3.org/2000/svg" xmlns:xlink="http://www.w3.org/1999/xlink" x="0px" y="0px"
	 viewBox="0 0 2333.5 386.3" style="enable-background:new 0 0 2333.5 386.3;" xml:space="preserve">
<style type="text/css">
	.st0{fill:none;stroke:#FFFFFF;stroke-miterlimit:10;}
	.st1{fill:none;stroke:#FFFFFF;stroke-width:30;stroke-miterlimit:10;}
	.st2{fill-rule:evenodd;clip-rule:evenodd;fill:#FFFFFF;stroke:#FFFFFF;stroke-miterlimit:10;}
	.st3{fill:#FFFFFF;stroke:#FFFFFF;stroke-miterlimit:10;}
	.st4{fill:#FFFFFF;stroke:#FFFFFF;stroke-width:21;stroke-miterlimit:10;}
	.st5{fill:none;stroke:#FFFFFF;stroke-width:32;stroke-miterlimit:10;}
</style>
<title>ts-logo-full-white</title>
<rect x="192.8" y="16" class="st0" width="354.3" height="354.3"/>
<rect x="16" y="16" class="st0" width="192.1" height="353.8"/>
<line class="st1" x1="65.2" y1="82.2" x2="161.7" y2="82.2"/>
<line class="st1" x1="66" y1="147.1" x2="162.5" y2="147.1"/>
<polygon class="st2" points="102.8,243.7 116,251.4 102.8,259 "/>
<polygon class="st3" points="83.9,211 83.9,291.7 153.8,251.4 "/>
<path class="st4" d="M586.2,195.9"/>
<polyline class="st5" points="561.8,329.5 562.3,370.3 207.9,370 16,369.8 16,16 208.1,16 562.3,16 562.3,59.4 "/>
<line class="st5" x1="208.1" y1="16" x2="207.9" y2="370"/>
<path class="st3" d="M834,95.6V137h-50.7v167.9h-48.7V137h-51V95.6H834z"/>
<path class="st3" d="M971.5,235.2h-97.6c-0.1,2.8-0.2,5.2-0.2,7.2c0,11,2.9,19.4,8.6,25c5.5,5.5,12.9,8.5,20.7,8.4
	c14.9,0,23.9-8.1,26.9-24.4l40.5,3.1c-11.3,35.8-34.3,53.7-68.9,53.7c-15.1,0-28-3.1-38.5-9.3c-10.6-6.2-19.3-15.2-26.1-27.1
	c-6.9-11.9-10.3-26.1-10.3-42.6c0-24.6,6.9-44.5,20.7-59.6s31.4-22.7,53-22.7c19.5,0,36.3,7,50.2,21.1S971.5,204.4,971.5,235.2z
	 M873.8,208.6h53.9c-1.4-21.3-10-31.9-25.7-31.9C885.2,176.7,875.8,187.4,873.8,208.6z"/>
<path class="st3" d="M1125.4,246.8c-1.7,18.3-8.8,33.1-21.2,44.4s-28.5,17-48.3,17c-21.4,0-38.9-7.2-52.3-21.7s-20.2-33.8-20.2-58
	c0-24.2,6.9-43.9,20.7-59s32.2-22.6,55.2-22.6c18.5,0,33.9,5.7,46,17s18.9,25.5,20.2,42.6l-41.7,2.5c-1.4-18.6-9.3-27.9-23.7-27.9
	c-17.7,0-26.6,14.8-26.6,44.5c0,19.7,2.5,32.3,7.4,37.6c4.6,5.2,11.2,8.1,18.1,8c13.8,0,22.1-8.9,24.8-26.8L1125.4,246.8z"/>
<path class="st3" d="M1185.2,95.6v75.5c8.2-16.2,21.9-24.3,41-24.3c10.2,0,18.9,2.3,26.2,6.8c6.8,4.1,12.2,10.2,15.3,17.6
	c2.9,7.2,4.4,17.6,4.4,31.4v102.3h-44.8v-87.4c0-10.4-0.4-17.6-1.2-21.5c-0.7-3.8-2.6-7.2-5.5-9.8c-2.9-2.6-6.8-4-10.7-3.9
	c-5.6,0-11.1,2.2-16.6,6.7c-5.5,4.5-8.2,13.9-8.2,28.5v87.4h-43.3V95.6H1185.2z"/>
<path class="st3" d="M1433.2,304.9h-44.8V218c0-10.5-0.4-17.7-1.2-21.6c-0.8-3.9-2.8-7.3-5.8-9.9c-3.3-2.8-7.4-4.2-11.7-4.1
	c-15.7,0-23.6,11.9-23.6,35.6v87h-44.8V150.1h41.6v26.2c6.9-12.5,13.7-20.5,20.4-24.1c6.7-3.6,14.2-5.4,21.8-5.4
	c14.4,0,26,4,34.8,11.9s13.2,23.5,13.2,46.7L1433.2,304.9z"/>
<path class="st3" d="M1525.3,146.8c23.1,0,41.1,7.7,54.1,23.2s19.4,34.8,19.4,58c0,22.9-6.7,42-20.2,57.3s-31.3,22.9-53.6,22.9
	c-21.6,0-38.9-7.6-51.8-22.7c-13-15.1-19.4-34.6-19.4-58.3c0-16.5,2.9-30.4,8.8-41.9c5.5-11.2,13.8-20.8,24.1-27.9
	C1496.8,150.3,1509.7,146.8,1525.3,146.8z M1526.5,176.7c-8.5,0-14.9,3.4-19.2,10.1s-6.4,20-6.4,39.9c0,18.3,2,31.4,6.1,39.4
	s10.5,12,19.2,12c7.6,0,13.7-3.4,18.4-10.2c4.7-6.8,7-19.8,7-38.9c0-20.3-2.1-34.1-6.2-41.4S1535,176.7,1526.5,176.7L1526.5,176.7z"
	/>
<path class="st3" d="M1776.3,141.6l-40.8,13.9c-5.5-16.6-17.1-24.8-34.9-24.8c-19,0-28.5,6.3-28.5,18.9c-0.1,4.8,1.8,9.4,5.3,12.7
	c3.5,3.5,11.6,6.5,24.1,9.1c20.9,4.3,36.2,8.6,45.9,13c9.7,4.4,17.9,11.4,24.5,21.2c6.6,9.6,10.1,21.1,10,32.7
	c0,18.9-7.1,35.3-21.4,49.1c-14.3,13.8-35.4,20.7-63.4,20.7c-21,0-38.9-4.9-53.6-14.6s-24.5-24.3-29.2-43.5l44.4-10.3
	c5,19.5,18.9,29.3,41.7,29.3c11,0,19.2-2.2,24.6-6.5s8.1-9.5,8.1-15.6c0.2-5.7-2.6-11.1-7.3-14.3c-4.9-3.4-14.3-6.5-28.3-9.5
	c-26.1-5.5-44.7-13.1-55.8-22.6S1625,177,1625,158.6c0-18.6,6.6-34.3,19.9-47.1c13.3-12.8,31.2-19.2,53.9-19.2
	C1738.9,92.4,1764.8,108.8,1776.3,141.6z"/>
<path class="st3" d="M1943.4,235.2h-97.6c-0.1,2.8-0.2,5.2-0.2,7.2c0,11,2.9,19.4,8.6,25c5.5,5.5,12.9,8.6,20.7,8.4
	c14.9,0,23.9-8.1,26.9-24.4l40.5,3.1c-11.3,35.8-34.3,53.7-68.9,53.7c-15.1,0-28-3.1-38.5-9.3c-10.6-6.2-19.3-15.2-26.1-27.1
	c-6.8-11.9-10.3-26.1-10.3-42.6c0-24.6,6.9-44.5,20.7-59.6s31.5-22.7,53.1-22.7c19.5,0,36.3,7,50.2,21.1
	C1936.5,182,1943.5,204.4,1943.4,235.2z M1845.7,208.6h53.9c-1.4-21.3-10-31.9-25.7-31.9C1857.1,176.7,1847.7,187.4,1845.7,208.6z"
	/>
<path class="st3" d="M2007.4,304.9H1964V150.1h41v28.8c6.3-21.5,17.2-32.2,32.7-32.2c2.2,0,4.9,0.2,8.1,0.5v45.1
	c-9.1,0-16.2,1.4-21.2,4.3s-9.2,8-12.4,15.4c-3.2,7.4-4.8,17.4-4.8,30L2007.4,304.9z"/>
<path class="st3" d="M2201.3,150.1l-52,154.9h-34.8l-52.1-154.9h46.5l29.2,98.2l29.9-98.1L2201.3,150.1z"/>
<path class="st3" d="M2326.6,187.5l-32.6,8.9c-3.8-14-13.7-21-29.6-21c-15,0-22.5,4.7-22.5,14c-0.1,3.4,1.4,6.7,4.1,8.8
	c2.8,2.2,9.9,4.1,21.5,5.6c17.3,2.3,30.1,5,38.4,8.1c8.1,2.9,15,8.3,19.7,15.5c4.9,7.3,7.3,16.2,7.3,26.8c0,15.9-5.9,28.9-17.8,39
	s-28.5,15.1-49.8,15c-38.7,0-61.7-15.3-69.2-45.9l37.7-5.7c3.1,13.9,14.3,20.9,33.6,20.9c7.4,0,13.7-1.4,18.8-4.1
	c5.1-2.7,7.7-6.4,7.7-11c0-7.2-5.7-11.4-17-12.7c-30.7-3.9-50.8-9.9-60.4-18c-9.6-8.1-14.5-19.5-14.5-34c0-14.7,5.6-26.9,16.8-36.5
	c11.2-9.6,26.9-14.4,47.1-14.4c16,0,28.8,3.2,38.4,9.7S2321.4,173.3,2326.6,187.5z"/>
<path class="st3" d="M409.2,98v41.4h-51.9v167.9h-49.6V139.4h-52.1V98H409.2z"/>
<path class="st3" d="M574.5,144l-41.7,14c-5.6-16.6-17.5-24.8-35.6-24.9c-19.4,0-29.1,6.3-29.1,18.9c-0.1,4.8,1.9,9.5,5.4,12.7
	c3.6,3.5,11.8,6.5,24.6,9c21.3,4.3,37,8.6,46.9,13s18.2,11.4,25,21.3c6.7,9.6,10.3,21,10.2,32.7c0,18.9-7.3,35.3-21.8,49.1
	s-36.1,20.7-64.7,20.7c-21.5,0-39.7-4.9-54.8-14.6s-25-24.2-29.8-43.5l45.4-10.3c5.1,19.5,19.3,29.3,42.5,29.3
	c11.2,0,19.6-2.2,25.1-6.5s8.3-9.5,8.2-15.5c0.2-5.7-2.6-11.2-7.5-14.3c-5-3.4-14.6-6.6-28.9-9.5c-26.7-5.5-45.7-13.1-57-22.6
	c-11.3-9.6-17-23.5-17-41.9c0-18.6,6.8-34.3,20.3-47.1s31.9-19.2,55.1-19.2C536.4,94.8,562.8,111.2,574.5,144z"/>
</svg>
